<?xml version="1.0" encoding="utf-8"?><!DOCTYPE svg PUBLIC "-//W3C//DTD SVG 1.1//EN" "http://www.w3.org/Graphics/SVG/1.1/DTD/svg11.dtd"><svg xmlns="http://www.w3.org/2000/svg" xmlns:xlink="http://www.w3.org/1999/xlink"><symbol fill="currentColor" viewBox="-1.5 0 19 19" class="acf-icon-svg" id="auto" xmlns="http://www.w3.org/2000/svg"><path d="M.947 9.928a2.027 2.027 0 0 1 1.347-1.891l1.094-2.824a1.307 1.307 0 0 1 1.164-.797h6.896a1.307 1.307 0 0 1 1.164.797l1.095 2.824a2.027 2.027 0 0 1 1.346 1.891v2.85a.476.476 0 0 1-.475.475h-.671v1.477a.476.476 0 0 1-.475.475h-.978a.476.476 0 0 1-.475-.475v-1.477H4.021v1.477a.476.476 0 0 1-.475.475h-.978a.476.476 0 0 1-.475-.475v-1.477h-.671a.476.476 0 0 1-.475-.475zm3.14.006a1.03 1.03 0 1 0-1.03 1.03 1.03 1.03 0 0 0 1.03-1.03zM3.53 7.911h8.938l-.89-2.297a.228.228 0 0 0-.132-.09H4.552a.228.228 0 0 0-.13.09zm10.441 2.023a1.03 1.03 0 1 0-1.029 1.03 1.03 1.03 0 0 0 1.03-1.03z"/></symbol><symbol viewBox="0 0 100 100" fill="currentColor" id="business" xmlns="http://www.w3.org/2000/svg"><path d="M81.49 21.21v11.14a6.48 6.48 0 0 1-6.11 6.56 6.19 6.19 0 0 1-4.57-1.76 6.26 6.26 0 0 1-1.91-4.53 6.3 6.3 0 0 1-12.6 0 6.3 6.3 0 1 1-12.6 0 6.3 6.3 0 0 1-12.6 0 6.27 6.27 0 0 1-6.48 6.29 6.48 6.48 0 0 1-6.11-6.56V21.21A3.21 3.21 0 0 1 21.72 18h56.56a3.21 3.21 0 0 1 3.21 3.21ZM72.81 82a2.82 2.82 0 0 0 2.82-2.82V42.9h-.51a10.14 10.14 0 0 1-6.23-2.15 10.29 10.29 0 0 1-12.59 0 10.31 10.31 0 0 1-12.6 0 10.29 10.29 0 0 1-12.59 0 10.27 10.27 0 0 1-6.27 2.14h-.47v36.29A2.82 2.82 0 0 0 27.19 82h6.31V61.82h15.33V82Z"/></symbol><symbol viewBox="0 0 16 16" id="chart" xmlns="http://www.w3.org/2000/svg"><path d="M1 1v14h14v-2H3V1H1Z" fill="currentColor"/><path d="m5 7 2-2 3 3 5-5v8H5V7Z" fill="currentColor"/></symbol><symbol fill="currentColor" viewBox="0 0 508.813 508.813" xml:space="preserve" id="commercial" xmlns="http://www.w3.org/2000/svg"><path d="M479.073 409.127H29.741c-5.372 0-9.727 4.355-9.727 9.728v80.231c0 5.371 4.354 9.728 9.727 9.728h449.332c5.373 0 9.727-4.355 9.727-9.728v-80.231c-.001-5.373-4.354-9.728-9.727-9.728zm-177.666 45.279h-94c-8.284 0-15-6.716-15-15s6.716-15 15-15h94c8.285 0 15 6.716 15 15s-6.715 15-15 15zM38.407 398.209h432c8.285 0 15-6.717 15-15l-20-282c0-8.285-6.715-15-15-15h-87.076V68.81h47.154c5.045 0 9.135-4.088 9.135-9.133V9.135A9.135 9.135 0 0 0 410.485 0H265.519a9.136 9.136 0 0 0-9.135 9.135V59.678c0 5.045 4.091 9.133 9.135 9.133h47.153v17.397H58.407c-8.284 0-15 6.715-15 15l-20 282c0 8.284 6.716 15.001 15 15.001zm280.222-153.056c-.631 7.896-.945 11.843-1.578 19.735-.334 4.16-3.752 7.535-7.633 7.535-8.155 0-16.311 0-24.465.002-3.881 0-6.465-3.377-5.773-7.537 1.312-7.894 1.967-11.84 3.277-19.735.691-4.161 4.154-7.536 7.732-7.536h22.561c3.581 0 6.211 3.375 5.879 7.536zm48.538 126.722c-9.969.002-19.938.002-29.906 0-4.742 0-8.443-3.371-8.264-7.533l.85-19.74c.18-4.159 3.926-7.532 8.367-7.532h28.002c4.441 0 8.188 3.373 8.367 7.532l.85 19.74c.179 4.162-3.522 7.533-8.266 7.533zm-27.594-84.533h25.281c4.012 0 7.404 3.375 7.586 7.535l.85 19.737c.178 4.161-3.17 7.534-7.482 7.534H338.62c-4.312 0-7.662-3.373-7.48-7.534l.85-19.737c.178-4.16 3.573-7.535 7.583-7.535zm-6.293-22.453.85-19.735c.18-4.161 3.227-7.536 6.805-7.536h22.562c3.578 0 6.625 3.375 6.803 7.536.342 7.896.512 11.843.852 19.735.18 4.16-2.822 7.535-6.703 7.535h-24.465c-3.882.002-6.884-3.373-6.704-7.535zm52.519-19.736c-.332-4.161 2.299-7.536 5.877-7.536h22.564c3.578 0 7.039 3.375 7.73 7.536l3.277 19.735c.691 4.16-1.895 7.535-5.773 7.535h-24.469c-3.881 0-7.297-3.375-7.629-7.535-.629-7.892-.946-11.839-1.577-19.735zm52.694 99.449 3.279 19.74c.689 4.16-2.594 7.532-7.338 7.532h-29.908c-4.744 0-8.861-3.372-9.193-7.532l-1.578-19.74c-.332-4.16 2.998-7.533 7.439-7.533h28.004c4.441-.001 8.603 3.372 9.295 7.533zm-11.539-22.454h-27.188c-4.314 0-8.08-3.373-8.412-7.534-.631-7.896-.945-11.843-1.578-19.737-.332-4.16 2.646-7.535 6.656-7.535h25.285c4.01 0 7.82 3.375 8.514 7.535l3.277 19.737c.692 4.161-2.244 7.534-6.554 7.534zM272.241 114.875a5 5 0 0 1 5-5h148a5 5 0 0 1 5 5v92a5 5 0 0 1-5 5h-148a5 5 0 0 1-5-5v-92zm-1.324 199.739c1.312-7.896 1.971-11.843 3.281-19.737.691-4.16 4.504-7.535 8.514-7.535h25.281c4.012 0 6.99 3.375 6.658 7.535l-1.578 19.737c-.334 4.161-4.1 7.534-8.41 7.534l-27.188.001c-4.312 0-7.249-3.374-6.558-7.535zm-8.26 49.728c1.312-7.895 1.969-11.846 3.279-19.74.691-4.159 4.854-7.532 9.295-7.532h28.004c4.439 0 7.77 3.373 7.438 7.532-.631 7.896-.945 11.847-1.578 19.74-.334 4.162-4.448 7.533-9.191 7.533h-29.908c-4.744 0-8.029-3.371-7.339-7.533zM155.241 114.875a5 5 0 0 1 5-5h50a5 5 0 0 1 5 5v92a5 5 0 0 1-5 5h-50a5 5 0 0 1-5-5v-92zm-76.668 0a5 5 0 0 1 5-5h50a5 5 0 0 1 5 5v92a5 5 0 0 1-5 5h-50a5 5 0 0 1-5-5v-92z"/></symbol><symbol viewBox="0 0 64 64" xml:space="preserve" id="creditcard" xmlns="http://www.w3.org/2000/svg"><g fill="currentColor"><path d="M0 32v20c0 2.211 1.789 4 4 4h56c2.211 0 4-1.789 4-4V32H0zm24 12h-8c-2.211 0-4-1.789-4-4s1.789-4 4-4h8c2.211 0 4 1.789 4 4s-1.789 4-4 4zM64 24V12c0-2.211-1.789-4-4-4H4c-2.211 0-4 1.789-4 4v12h64z"/></g></symbol><symbol viewBox="0 0 512 512" id="handshake" xmlns="http://www.w3.org/2000/svg"><path fill="currentColor" d="m494 61.363-82.58 77.934 78.994 132.96 3.586-4.458V61.362zM18 62.5v225.893c4.48.582 9.863.903 15.295.96 11.87.125 21.654-.65 27.15-1.144L113.1 154.974 18 62.5zm389.154 104.86-7.04 4.556c-.15.097-5.362 3.336-6.893 4.29l-10.605 6.42.15.09c-4.914 3.057-6.28 3.917-11.857 7.38-2.83 1.757-2.9 1.798-5.584 3.465-20.29-10.907-42.306-19.29-67.998-25.882-32.312 9.762-66.542 23.888-100.722 37.142 14.19 17.087 29.96 22.651 45.845 22.85 18.42.23 37.25-7.78 50.218-16.754l7.4-5.12 7.426 10.73 115.453 83.33 45.112-29.987-60.906-102.51zm-280.677 2.74L81.11 284.887l16.65 12.803 30.795-34.905 2.467-2.795 3.72-.232c1.5-.094 2.98-.138 4.44-.13 10.212.066 19.342 2.716 26.19 8.76 5.072 4.472 8.444 10.426 10.4 17.32l2.28-.142c11.995-.75 22.802 1.725 30.63 8.63 7.827 6.907 11.63 17.323 12.38 29.32l.07 1.08c6.44 1.216 12.205 3.752 16.893 7.888 7.828 6.906 11.63 17.32 12.38 29.317l.197 3.12a37.65 37.65 0 0 1 1.9.658l2.033-2.853 5.47-7.678 2.813-3.95 7.33 5.223 59.428 42.336c6.464-1.594 10.317-4.075 12.46-7.086 2.147-3.012 3.233-7.47 2.624-14.107l-71.258-51.03-7.318-5.24 5.19-7.246 6.67-9.365 7.33 5.223 80.335 57.226c6.464-1.593 10.32-4.074 12.463-7.085 2.144-3.01 3.23-7.457 2.625-14.082l-92.398-65.55-7.34-5.21 10.414-14.68 7.343 5.208 92.414 65.565c6.47-1.594 10.327-4.075 12.473-7.088 2.148-3.015 3.233-7.476 2.62-14.125l-110.44-79.71c-14.655 8.688-33.402 15.648-53.557 15.396-23.587-.295-48.817-11.566-67.377-40.05a9 9 0 0 1 4.343-13.327c13.014-4.945 26.163-10.17 39.343-15.354l-92.056-6.834zm12.902 107.62-47.564 53.91c.927 6.746 3.04 10.942 5.887 13.454 2.847 2.512 7.275 4.085 14.084 4.164l47.563-53.908c-.927-6.747-3.04-10.945-5.887-13.457-2.847-2.512-7.274-4.084-14.084-4.162zm43.308 25.81-53.713 60.88c.926 6.747 3.04 10.945 5.886 13.457 2.85 2.51 7.275 4.083 14.085 4.16l53.713-60.878c-.926-6.748-3.04-10.944-5.887-13.457-2.846-2.512-7.273-4.085-14.083-4.164zm29.34 38.286-47.56 53.91c.927 6.746 3.04 10.943 5.887 13.456 2.848 2.512 7.275 4.083 14.084 4.162L232 359.44c-.927-6.75-3.04-10.947-5.887-13.46-2.847-2.512-7.274-4.083-14.084-4.162zm24.702 39.137-38.794 44.28c.925 6.76 3.038 10.962 5.888 13.476 2.845 2.51 7.267 4.082 14.067 4.163l38.796-44.28c-.926-6.758-3.04-10.96-5.89-13.476-2.844-2.51-7.266-4.08-14.066-4.162zm35.342 4.79c1.694 4.62 2.673 9.74 3.014 15.192l.232 3.704-8.277 9.448 26.724 19.037c6.464-1.594 10.316-4.075 12.46-7.086 2.145-3.01 3.233-7.464 2.628-14.093l-36.78-26.2z"/></symbol><symbol viewBox="0 0 16 16" fill="none" id="home" xmlns="http://www.w3.org/2000/svg"><path d="M1 6v9h5v-4a2 2 0 1 1 4 0v4h5V6L8 0 1 6Z" fill="currentColor"/></symbol><symbol fill="currentColor" viewBox="0 0 128 128" xml:space="preserve" id="meeting" xmlns="http://www.w3.org/2000/svg"><circle transform="rotate(-14.999 23.174 47.43)" cx="23.2" cy="47.4" r="7.8"/><path d="M37.4 97.5H27c-4.3-.4-8-3.5-9.1-7.8l-6.5-24.2c-.4-1.4-1.8-2.1-3-1.8-1.4.4-2.1 1.8-1.8 3L13 90.9c1.7 6.3 7 10.9 13.5 11.4.6.1 1.3.1 1.3.1h9.5c1.4 0 2.4-1.1 2.5-2.5 0-1.4-1-2.4-2.4-2.4z"/><path d="M48.6 83.9h-13c-.3-4.9-1.1-9.8-2.3-14.7-.1-.4-.4-1.4-.4-1.5-1.7-6.3-7.7-10.3-14-9.7 0 0-.8.1-1 .1-2.3.6-3.7 3-3.1 5.4l6.7 24.9c.7 2.8 3.1 4.9 6.1 5.1h16.1v17.8c0 2.7 2.1 4.9 4.9 4.9 2.7 0 4.9-2.1 4.9-4.9V88.8c0-1.3-.5-2.5-1.5-3.4-.9-1-2.2-1.5-3.4-1.5z"/><circle transform="rotate(-75.001 104.436 47.43)" cx="104.4" cy="47.4" r="7.8"/><path d="M90.2 97.5h10.4c4.3-.4 8-3.5 9.1-7.8l6.5-24.2c.4-1.4 1.8-2.1 3-1.8 1.4.4 2.1 1.8 1.8 3l-6.4 24.2c-1.7 6.3-7 10.9-13.5 11.4-.6.1-1.3.1-1.3.1h-9.5c-1.4 0-2.4-1.1-2.5-2.5 0-1.4 1.1-2.4 2.4-2.4z"/><path d="M79 83.9h13c.3-4.9 1.1-9.8 2.3-14.7.1-.4.4-1.4.4-1.5 1.7-6.3 7.7-10.3 14-9.7 0 0 .8.1 1 .1 2.3.6 3.7 3 3.1 5.4L106 88.4c-.7 2.8-3.1 4.9-6.1 5.1h-16v17.8c0 2.7-2.1 4.9-4.9 4.9s-4.9-2.1-4.9-4.9V88.8c0-1.3.5-2.5 1.5-3.4.9-1 2.2-1.5 3.4-1.5z"/><path d="M38.8 70.8h50.6v6H38.8z"/><circle cx="64.1" cy="43.2" r="7.2"/><path d="M52.5 67.9v-4.3h-.1c0-.5.4-.9.9-.9s.9.4.9.9v4.3h19.9v-4.3H74c0-.5.4-.9.9-.9s.9.4.9.9v4.3H82v-6.1c0-5-4-9-9-9H55c-5 0-9 4-9 9v6.1h6.5z"/></symbol><symbol viewBox="0 0 1024 1024" fill="currentColor" class="iicon" id="personal" xmlns="http://www.w3.org/2000/svg"><path d="M512 0C229.612 0 0 229.612 0 512s229.612 512 512 512 512-229.612 512-512S794.258 0 512 0zm309.103 815.89c-9.774-52.777-32.84-102.687-67.503-144.387a38.938 38.938 0 0 0-54.992-4.952 38.938 38.938 0 0 0-4.952 54.992c35.185 42.352 54.602 95.91 54.602 151.033 0 .912.26 1.825.26 2.737C680.495 919.75 599.31 945.682 512 945.682s-168.364-25.932-236.518-70.37c0-.911.26-1.693.26-2.736 0-130.183 105.945-236.257 236.258-236.257 121.712 0 220.75-99.038 220.75-220.75S633.712 194.817 512 194.817s-220.75 99.038-220.75 220.75c0 70.5 33.23 133.18 84.833 173.577C287.08 632.018 221.272 715.68 202.897 815.76 125.752 737.572 78.187 630.194 78.187 512 78.188 272.745 272.746 78.188 512 78.188S945.812 272.745 945.812 512c-.13 118.194-47.694 225.572-124.71 303.89zM369.307 415.699c0-78.58 63.984-142.563 142.563-142.563S654.432 337.12 654.432 415.7c0 78.709-63.984 142.562-142.562 142.562S369.307 494.277 369.307 415.7z"/></symbol><symbol viewBox="0 0 24 24" id="phone" xmlns="http://www.w3.org/2000/svg"><path d="M18 9V6m0 0V3m0 3h-3m3 0h3m-2.5 15C9.94 21 3 14.06 3 5.5c0-.386.014-.77.042-1.148.032-.435.048-.653.162-.851a1.06 1.06 0 0 1 .432-.402C3.842 3 4.082 3 4.562 3h2.817c.404 0 .606 0 .779.066a1 1 0 0 1 .396.278c.122.14.191.33.329.71l1.166 3.206c.16.442.24.662.227.872a1 1 0 0 1-.182.513c-.121.171-.323.292-.725.534L8 10a12.1 12.1 0 0 0 6 6l.821-1.369c.242-.402.363-.604.534-.725a1 1 0 0 1 .513-.182c.21-.014.43.066.872.227l3.207 1.166c.38.138.569.207.709.329a.999.999 0 0 1 .277.396c.067.173.067.375.067.779v2.817c0 .48 0 .72-.1.926a1.06 1.06 0 0 1-.401.432c-.198.114-.416.13-.85.162-.38.028-.763.042-1.149.042Z" stroke="currentColor" stroke-width="2" stroke-linecap="round" stroke-linejoin="round"/></symbol><symbol viewBox="0 0 32 32" xml:space="preserve" id="plan" xmlns="http://www.w3.org/2000/svg"><path d="M26 1H6c-1.1 0-2 .9-2 2v26c0 1.1.9 2 2 2h20c1.1 0 2-.9 2-2V3c0-1.1-.9-2-2-2zM10 23a1 1 0 1 1 0-2 1 1 0 0 1 0 2zm0-4a1 1 0 1 1 0-2 1 1 0 0 1 0 2zm0-4a1 1 0 1 1 0-2 1 1 0 0 1 0 2zm0-4a1 1 0 1 1 0-2 1 1 0 0 1 0 2zm12 12h-8a1 1 0 0 1 0-2h8a1 1 0 0 1 0 2zm0-4h-8a1 1 0 0 1 0-2h8a1 1 0 0 1 0 2zm0-4h-8a1 1 0 0 1 0-2h8a1 1 0 0 1 0 2zm0-4h-8a1 1 0 0 1 0-2h8a1 1 0 0 1 0 2z" style="fill:#02084B"/></symbol><symbol fill="currentColor" viewBox="0 0 186 256" xml:space="preserve" id="property" xmlns="http://www.w3.org/2000/svg"><path d="M92.718 57.02 76.428 71.9V59.37h-14.01v25.41l-24.06 21.91 8.53 9.14 8.3-7.62V160h24.23v-32h27v32h24.25v-52.26l8.43 7.62 8.32-9.37-54.7-48.97zm40.52-55.404H2v252h181.835V52.708L133.238 1.616zM17.812 17.427h109.002l.692.494v41.012h40.518v178.871H17.812V17.427zM147.418 194h-109v-12h109v12zm0 22h-109v-12h109v12z"/></symbol></svg>