<svg xmlns="http://www.w3.org/2000/svg" version="1.1" xmlns:xlink="http://www.w3.org/1999/xlink" width="1000" height="1000"><metadata><rdf:RDF xmlns:rdf="http://www.w3.org/1999/02/22-rdf-syntax-ns#" xmlns:dc="http://purl.org/dc/elements/1.1/"><rdf:Description><dc:creator>RealFaviconGenerator</dc:creator><dc:source>https://realfavicongenerator.net</dc:source></rdf:Description></rdf:RDF></metadata><style>
    #light-icon {
      display: inline;
    }
    #dark-icon {
      display: none;
    }

    @media (prefers-color-scheme: dark) {
      #light-icon {
        display: none;
      }
      #dark-icon {
        display: inline;
      }
    }
  </style><g id="light-icon"><svg xmlns="http://www.w3.org/2000/svg" version="1.1" xmlns:xlink="http://www.w3.org/1999/xlink" width="1000" height="1000"><g clip-path="url(#SvgjsClipPath1189)"><rect width="1000" height="1000" fill="#ffffff"></rect><g transform="matrix(2.050113895216401,0,0,2.050113895216401,70.50113895216396,49.99999999999994)"><svg xmlns="http://www.w3.org/2000/svg" width="419" height="439" viewBox="0 0 419 439" fill="none"><rect width="419" height="439" fill="white"></rect><path d="M28.1868 140.501L73.8187 111.313L283.11 374.24L237.651 404L28.1868 140.501Z" fill="url(#paint0_linear_1_2)"></path><rect x="237.219" y="403.824" width="50.3561" height="152.352" transform="rotate(-90 237.219 403.824)" fill="url(#paint1_linear_1_2)"></rect><rect x="237.219" y="119.648" width="51.8256" height="283.495" fill="url(#paint2_linear_1_2)"></rect><rect width="54.1633" height="354.881" transform="matrix(0.842433 0.538801 -0.622746 0.782424 249.19 96.5573)" fill="url(#paint3_linear_1_2)"></rect><path d="M313.47 60.9965L303.626 142.66L230.524 95.9012L313.47 60.9965Z" fill="url(#paint4_linear_1_2)"></path><defs>
<linearGradient id="paint0_linear_1_2" x1="51.0027" y1="125.907" x2="231.12" y2="407.495" gradientUnits="userSpaceOnUse">
<stop stop-color="#134DA3"></stop>
<stop offset="1" stop-color="#071D3D"></stop>
</linearGradient>
<linearGradient id="paint1_linear_1_2" x1="262.397" y1="556.176" x2="262.397" y2="403.824" gradientUnits="userSpaceOnUse">
<stop stop-color="#134DA3"></stop>
<stop offset="1" stop-color="#071D3D"></stop>
</linearGradient>
<linearGradient id="paint2_linear_1_2" x1="263.132" y1="119.648" x2="263.132" y2="403.144" gradientUnits="userSpaceOnUse">
<stop stop-color="#134DA3"></stop>
<stop offset="1" stop-color="#071D3D"></stop>
</linearGradient>
<linearGradient id="paint3_linear_1_2" x1="22.0211" y1="9.84253" x2="25.6713" y2="354.896" gradientUnits="userSpaceOnUse">
<stop stop-color="#4E8FE6"></stop>
<stop offset="0.5" stop-color="#12376A"></stop>
<stop offset="1" stop-color="#071D3D"></stop>
</linearGradient>
<linearGradient id="paint4_linear_1_2" x1="261.954" y1="120.047" x2="306.43" y2="57.5182" gradientUnits="userSpaceOnUse">
<stop stop-color="#4E8FE6"></stop>
<stop offset="0.5" stop-color="#A7C7F3"></stop>
<stop offset="1" stop-color="white"></stop>
</linearGradient>
<clipPath id="SvgjsClipPath1189"><rect width="1000" height="1000" x="0" y="0" rx="450" ry="450"></rect></clipPath></defs></svg></g></g></svg></g><g id="dark-icon"><svg xmlns="http://www.w3.org/2000/svg" version="1.1" xmlns:xlink="http://www.w3.org/1999/xlink" width="1000" height="1000"><g clip-path="url(#SvgjsClipPath1190)"><rect width="1000" height="1000" fill="#ffffff"></rect><g transform="matrix(1.8223234624145785,0,0,1.8223234624145785,118.22323462414579,100)"><svg xmlns="http://www.w3.org/2000/svg" width="419" height="439" viewBox="0 0 419 439" fill="none"><rect width="419" height="439" fill="white"></rect><path d="M28.1868 140.501L73.8187 111.313L283.11 374.24L237.651 404L28.1868 140.501Z" fill="url(#paint0_linear_1_2)"></path><rect x="237.219" y="403.824" width="50.3561" height="152.352" transform="rotate(-90 237.219 403.824)" fill="url(#paint1_linear_1_2)"></rect><rect x="237.219" y="119.648" width="51.8256" height="283.495" fill="url(#paint2_linear_1_2)"></rect><rect width="54.1633" height="354.881" transform="matrix(0.842433 0.538801 -0.622746 0.782424 249.19 96.5573)" fill="url(#paint3_linear_1_2)"></rect><path d="M313.47 60.9965L303.626 142.66L230.524 95.9012L313.47 60.9965Z" fill="url(#paint4_linear_1_2)"></path><defs>
<linearGradient id="paint0_linear_1_2" x1="51.0027" y1="125.907" x2="231.12" y2="407.495" gradientUnits="userSpaceOnUse">
<stop stop-color="#134DA3"></stop>
<stop offset="1" stop-color="#071D3D"></stop>
</linearGradient>
<linearGradient id="paint1_linear_1_2" x1="262.397" y1="556.176" x2="262.397" y2="403.824" gradientUnits="userSpaceOnUse">
<stop stop-color="#134DA3"></stop>
<stop offset="1" stop-color="#071D3D"></stop>
</linearGradient>
<linearGradient id="paint2_linear_1_2" x1="263.132" y1="119.648" x2="263.132" y2="403.144" gradientUnits="userSpaceOnUse">
<stop stop-color="#134DA3"></stop>
<stop offset="1" stop-color="#071D3D"></stop>
</linearGradient>
<linearGradient id="paint3_linear_1_2" x1="22.0211" y1="9.84253" x2="25.6713" y2="354.896" gradientUnits="userSpaceOnUse">
<stop stop-color="#4E8FE6"></stop>
<stop offset="0.5" stop-color="#12376A"></stop>
<stop offset="1" stop-color="#071D3D"></stop>
</linearGradient>
<linearGradient id="paint4_linear_1_2" x1="261.954" y1="120.047" x2="306.43" y2="57.5182" gradientUnits="userSpaceOnUse">
<stop stop-color="#4E8FE6"></stop>
<stop offset="0.5" stop-color="#A7C7F3"></stop>
<stop offset="1" stop-color="white"></stop>
</linearGradient>
<clipPath id="SvgjsClipPath1190"><rect width="1000" height="1000" x="0" y="0" rx="450" ry="450"></rect></clipPath></defs></svg></g></g></svg></g></svg>