<svg version="1.1" id="Layer_1" xmlns="http://www.w3.org/2000/svg" xmlns:xlink="http://www.w3.org/1999/xlink" x="0px" y="0px"
	 width="100%" viewBox="0 0 1024 768" enable-background="new 0 0 1024 768" xml:space="preserve">
<path fill="#000000" opacity="1.000000" stroke="none" 
	d="
M633.000000,769.000000 
	C422.000000,769.000000 211.500000,769.000000 1.000000,769.000000 
	C1.000000,513.000000 1.000000,257.000000 1.000000,1.000000 
	C342.333344,1.000000 683.666687,1.000000 1025.000000,1.000000 
	C1025.000000,257.000000 1025.000000,513.000000 1025.000000,769.000000 
	C894.500000,769.000000 764.000000,769.000000 633.000000,769.000000 
M767.899292,420.254089 
	C766.144226,417.809906 764.389160,415.365723 762.049500,412.107422 
	C760.154297,414.956360 757.934570,417.033264 757.337708,419.502441 
	C756.553345,422.747406 757.118042,426.304321 756.970825,429.721405 
	C756.813293,433.379761 759.603516,435.964172 762.975525,434.859192 
	C763.771912,434.598175 764.146240,433.049316 764.714722,432.092865 
	C759.588867,429.073303 763.521301,425.164429 763.325195,421.321838 
	C765.112854,421.192719 766.565125,421.087799 768.005493,421.757416 
	C770.334229,424.677490 772.662964,427.597565 775.780151,431.506256 
	C772.583801,430.171112 770.123047,429.143219 767.592041,428.086029 
	C766.345703,431.500061 767.119507,433.862396 770.357666,434.583862 
	C773.563721,435.298187 777.215820,436.036652 779.265930,432.357300 
	C783.319031,425.083008 774.635803,425.866943 772.517151,422.468872 
	C772.750671,422.009033 772.984192,421.549164 773.217712,421.089325 
	C775.595398,422.034607 777.973145,422.979858 780.468018,423.971710 
	C780.726135,423.136627 781.135376,422.482849 780.966614,422.252289 
	C779.693665,420.513550 778.623596,417.987701 776.890198,417.357330 
	C773.257996,416.036346 770.154114,417.820557 767.899292,420.254089 
M542.092285,431.762115 
	C542.434326,432.766205 542.776367,433.770325 543.118408,434.774445 
	C545.325806,433.518860 547.533142,432.263275 549.740845,431.007507 
	C551.960205,435.160675 551.960205,435.160675 556.326782,433.858612 
	C551.459900,427.876129 553.796387,422.820099 559.073975,418.416077 
	C553.957092,414.959198 553.757019,421.294098 551.504333,421.624908 
	C549.572205,419.744843 548.010986,418.225800 546.449829,416.706726 
	C545.996155,417.015686 545.542542,417.324646 545.088867,417.633606 
	C545.398865,419.319031 545.349548,421.183899 546.085022,422.656860 
	C548.459290,427.411987 546.030029,429.553497 541.970459,430.338104 
	C542.203369,429.126892 542.758972,427.872040 542.602356,426.713562 
	C542.273621,424.283020 542.299011,421.287445 540.886658,419.615875 
	C536.327881,414.220551 528.878235,416.856506 525.626831,424.713135 
	C523.552246,429.726135 526.589355,435.156281 531.926086,434.766296 
	C535.363464,434.515045 538.658203,432.309998 542.092285,431.762115 
M596.059937,369.081543 
	C595.128174,364.089813 597.270996,362.275909 602.145874,363.004120 
	C603.724609,363.239929 605.374573,362.998322 607.749146,362.836975 
	C610.070862,358.117706 609.207642,356.251129 604.544861,356.023773 
	C602.720886,355.934784 600.783508,356.346039 599.098755,355.848694 
	C597.921753,355.501190 596.310059,353.993744 596.314514,353.010834 
	C596.319031,352.011353 597.953857,350.347748 599.073303,350.160095 
	C601.660339,349.726501 604.431213,350.350342 607.001160,349.869659 
	C608.450806,349.598511 610.428589,348.211914 610.797607,346.932434 
	C611.538879,344.362366 609.857361,342.997162 607.144287,343.012695 
	C601.827332,343.043121 596.498291,342.831451 591.202148,343.164032 
	C590.061829,343.235657 588.136719,345.163330 588.105469,346.278931 
	C587.849792,355.410767 587.866394,364.554779 588.071228,373.689026 
	C588.096375,374.810211 589.680237,376.811798 590.606750,376.850555 
	C597.195007,377.126373 603.800232,376.997528 610.268982,376.997528 
	C611.559021,370.220917 611.429016,370.046509 605.577087,370.006805 
	C602.420166,369.985413 599.263306,369.972595 596.059937,369.081543 
M396.040649,295.013641 
	C396.356567,284.261688 396.746613,273.510681 396.886261,262.756439 
	C396.902130,261.533722 395.511871,260.292755 394.773590,259.060242 
	C393.833221,260.277039 392.205322,261.422821 392.071075,262.722870 
	C391.479919,268.446564 391.066589,274.213928 391.046173,279.967041 
	C390.944458,308.617798 390.987122,337.269073 390.188110,366.320435 
	C390.126587,376.247345 390.046265,386.174225 390.045898,396.101135 
	C390.045868,396.761658 390.653442,397.422211 391.002533,399.009430 
	C391.055511,408.020538 391.108490,417.031677 391.011566,426.964050 
	C391.007721,442.848999 390.977844,458.734039 391.042755,474.618713 
	C391.048828,476.106049 391.653381,477.590973 392.009552,480.004211 
	C392.007568,485.990906 391.892334,491.980682 392.053772,497.962982 
	C392.128967,500.748230 390.650482,505.467316 394.860657,505.297546 
	C398.703766,505.142487 396.535706,500.632202 396.961945,497.064514 
	C396.970490,431.551453 396.984863,366.038422 396.951508,300.525391 
	C396.950745,298.996765 396.412994,297.468414 396.040649,295.013641 
M727.843811,321.626038 
	C727.894958,311.735229 727.964111,301.844391 727.954773,291.953644 
	C727.954163,291.325775 727.343201,290.698486 726.470886,289.471588 
	C718.114563,288.206543 718.136475,288.214111 715.477783,295.924561 
	C713.795349,300.803864 712.035522,305.656494 709.880188,311.734283 
	C707.700012,305.410370 705.912598,300.313354 704.185974,295.195801 
	C701.864685,288.315521 700.293579,287.564178 692.379639,290.582764 
	C692.241577,300.332550 692.071289,310.082184 692.012390,319.832428 
	C692.006104,320.872589 692.649414,321.916687 693.879944,323.002136 
	C699.105042,323.986877 700.612793,321.578064 700.091064,316.678711 
	C699.727356,313.263153 700.020996,309.777527 700.020996,306.323212 
	C702.026917,310.341156 703.536621,314.447021 704.975952,318.577423 
	C705.796631,320.932281 706.269287,323.115570 709.763367,323.131744 
	C713.518005,323.149078 714.039429,320.626617 714.900635,318.188141 
	C716.408569,313.918610 717.784546,309.602509 719.215820,305.305908 
	C719.556274,305.389465 719.896729,305.473053 720.237183,305.556610 
	C720.237183,311.153534 720.237183,316.750427 720.237183,323.257660 
	C722.826111,322.747406 724.922241,322.334259 727.843811,321.626038 
M125.983078,338.500000 
	C125.980118,390.995148 126.040436,443.490479 125.868774,495.985077 
	C125.852943,500.825134 127.214615,502.123169 132.016357,502.114075 
	C209.175705,501.967896 286.335449,501.970154 363.494843,502.095978 
	C367.927551,502.103180 369.122650,500.824493 369.115753,496.451263 
	C368.994446,419.458496 368.991180,342.465424 369.123322,265.472656 
	C369.130951,261.025665 367.845367,259.876190 363.482269,259.883606 
	C286.156189,260.015320 208.829803,260.024292 131.503723,259.904694 
	C127.112343,259.897919 125.838158,261.081879 125.877052,265.507416 
	C126.087929,289.503387 125.980682,313.502197 125.983078,338.500000 
M514.010437,317.508911 
	C515.429016,313.384827 516.847534,309.260742 518.266113,305.136627 
	C518.978821,309.500427 518.952515,313.657867 518.985168,317.814850 
	C519.029724,323.480438 519.603394,323.850342 526.026489,322.023376 
	C526.026489,313.050964 526.038879,303.921997 526.022034,294.793091 
	C526.011353,288.969604 525.438293,288.281372 519.796997,289.157349 
	C518.298401,289.390015 516.419128,291.050964 515.819031,292.510284 
	C513.411743,298.364471 511.438263,304.397003 508.828247,311.694794 
	C506.269714,304.174988 504.083008,298.139893 502.176941,292.017456 
	C500.741272,287.405853 497.073883,289.219452 494.251282,289.207489 
	C493.200836,289.203033 491.224335,291.049316 491.231049,292.041138 
	C491.292450,301.181000 491.754791,310.317200 491.962250,319.457611 
	C492.019318,321.971436 493.009552,323.586975 495.450897,322.860565 
	C496.845795,322.445496 498.699738,320.709900 498.826508,319.419525 
	C499.249786,315.111359 498.986877,310.735779 498.986877,306.386047 
	C501.017181,310.409241 502.511902,314.407898 503.969482,318.420013 
	C504.798035,320.700775 505.022491,323.080475 508.622192,323.133667 
	C512.384583,323.189240 512.915222,320.775604 514.010437,317.508911 
M773.451782,307.122070 
	C776.148010,311.496124 779.063049,315.753937 781.468262,320.282562 
	C783.260071,323.656067 786.185791,323.530579 788.705017,322.686920 
	C789.903076,322.285645 790.867859,319.446136 790.923950,317.678925 
	C791.161560,310.193909 791.026550,302.696716 791.011780,295.204041 
	C790.999451,288.926575 790.071533,288.250336 783.014526,289.829651 
	C783.014526,295.383575 783.014526,301.078705 783.014526,306.773865 
	C778.859375,301.875336 775.376160,296.883667 772.400574,291.605865 
	C770.369812,288.003937 767.223938,288.672455 764.589966,289.377747 
	C763.364075,289.706024 762.152466,292.588776 762.095337,294.351196 
	C761.836609,302.334686 762.048645,310.332153 761.967834,318.323334 
	C761.939514,321.127533 762.157104,323.041718 765.856628,323.104797 
	C769.807678,323.172180 770.114441,321.144653 770.036255,318.114929 
	C769.908203,313.153473 770.001587,308.186340 770.001587,301.919312 
	C771.570435,304.344421 772.289185,305.455475 773.451782,307.122070 
M577.179749,295.306183 
	C576.174133,293.791534 575.495728,291.689789 574.084351,290.903076 
	C572.082947,289.787445 569.561584,289.453735 567.217712,289.201935 
	C566.572571,289.132629 565.141418,290.536041 565.131470,291.277863 
	C564.992432,301.695160 565.037048,312.114960 565.037048,322.414978 
	C572.493591,323.517700 573.027527,323.089203 573.057129,316.542480 
	C573.075623,312.456848 573.060547,308.371063 573.060547,302.885681 
	C576.886963,309.100891 580.149536,314.020142 583.008850,319.163635 
	C585.344727,323.365479 588.514709,323.762604 592.994324,322.234680 
	C592.994324,312.074799 593.107544,301.957214 592.814148,291.851410 
	C592.785706,290.872681 590.125061,289.098907 588.893921,289.261932 
	C587.556824,289.438965 585.531921,291.374054 585.427002,292.673340 
	C585.021606,297.696594 585.262329,302.772034 585.262329,307.938660 
	C582.697815,303.935181 580.134460,299.933533 577.179749,295.306183 
M655.464355,291.973999 
	C648.309753,285.467346 638.823120,288.143921 633.799561,292.744476 
	C628.188721,297.882935 627.362305,311.218201 631.829529,317.306091 
	C637.117798,324.512848 644.904663,324.329132 650.493958,321.575531 
	C652.816528,322.321930 655.271484,322.959808 657.510193,322.513275 
	C658.281250,322.359497 658.676208,319.527924 658.942017,317.871338 
	C659.176270,316.411041 659.006714,314.883270 658.988831,313.385620 
	C658.856445,302.306824 660.672974,302.916443 648.551086,302.987122 
	C642.957397,303.019745 642.319824,303.942657 643.876221,309.686737 
	C646.051575,309.912231 648.295898,310.144836 650.692810,310.393280 
	C650.650513,314.453705 649.010803,316.087311 645.200806,316.047668 
	C641.359497,316.007660 638.634949,314.767365 638.096375,310.746033 
	C637.790100,308.459320 638.047058,306.094818 638.078064,303.765686 
	C638.165771,297.187531 642.153870,294.194305 648.306946,296.383606 
	C650.039856,297.000214 651.415466,298.620789 652.946655,299.774628 
	C658.690125,296.360748 658.690125,296.360748 655.464355,291.973999 
M496.805023,369.856537 
	C498.282288,377.553406 499.571594,378.378479 506.711090,375.939087 
	C505.765442,372.962219 504.935333,369.932312 503.829742,367.006531 
	C503.013184,364.845673 501.837494,362.820526 500.706329,360.497803 
	C505.135376,357.764313 506.199371,353.213196 504.549988,348.873413 
	C502.831726,344.352386 498.600342,342.494690 493.524323,342.963654 
	C490.717163,343.222992 487.858704,343.144379 485.037659,342.977051 
	C482.042938,342.799377 480.858490,343.916229 480.945679,346.992218 
	C481.115509,352.982513 480.998505,358.981018 480.999573,364.976105 
	C481.000244,368.882355 480.999664,372.788605 480.999664,376.573944 
	C489.056183,377.419373 489.055908,377.419373 489.065369,370.603577 
	C489.067200,369.271362 488.897491,367.908234 489.126678,366.616089 
	C489.335938,365.436401 489.928864,363.404724 490.439972,363.377350 
	C491.779144,363.305542 493.541748,363.758331 494.437134,364.680328 
	C495.514679,365.789917 495.871124,367.599823 496.805023,369.856537 
M743.097229,315.674957 
	C740.916565,310.141754 741.516418,309.134033 747.030273,309.103119 
	C749.476807,309.089386 751.923523,309.100769 754.235107,309.100769 
	C755.625122,302.307037 755.418091,302.018433 749.666260,301.978516 
	C748.333862,301.969299 746.855835,302.340515 745.706543,301.881439 
	C744.337830,301.334717 743.251221,300.081909 742.042358,299.135071 
	C743.328003,298.088989 744.487366,296.432556 745.927856,296.134369 
	C748.321655,295.638855 750.899902,295.932709 753.393250,296.047974 
	C755.878723,296.162933 757.051880,295.279236 757.031311,292.623016 
	C757.012146,290.152344 756.248352,288.932922 753.588379,288.988617 
	C748.427429,289.096649 743.239197,288.750183 738.114258,289.193237 
	C736.655273,289.319366 734.245544,291.476288 734.195496,292.776031 
	C733.849609,301.756348 733.935913,310.757751 734.114014,319.747833 
	C734.135254,320.819794 735.518799,322.754639 736.322021,322.781891 
	C743.411743,323.022186 750.513000,322.921295 757.496033,322.921295 
	C758.324097,316.577606 757.924683,316.092133 752.446899,316.011261 
	C749.616577,315.969452 746.785950,315.945801 743.097229,315.674957 
M535.240662,322.976501 
	C536.471863,321.501312 537.599182,319.920258 538.963867,318.581055 
	C540.288696,317.280884 541.819519,315.322998 543.326721,315.260376 
	C546.283020,315.137512 550.607544,313.242676 551.729004,317.986053 
	C553.003357,323.376282 556.066040,323.894562 560.607910,322.380554 
	C560.696716,321.680969 561.010071,320.962036 560.825073,320.410187 
	C557.560608,310.673096 554.410828,300.888702 550.719055,291.313965 
	C550.212219,289.999298 546.929993,289.138550 544.962219,289.190247 
	C543.260498,289.234955 540.616028,290.494324 540.082581,291.872528 
	C536.676270,300.673096 533.820129,309.684509 530.609802,318.563965 
	C529.152527,322.594513 531.076782,323.276367 535.240662,322.976501 
M462.536377,343.005157 
	C460.538391,343.008179 458.536102,343.094910 456.543457,342.993256 
	C454.002960,342.863586 452.957397,343.912415 452.980713,346.498108 
	C453.061646,355.488342 452.880432,364.484009 453.168152,373.465759 
	C453.206970,374.677887 455.286621,376.746155 456.536987,376.837708 
	C461.836884,377.225830 467.198914,377.265747 472.496643,376.872528 
	C474.041229,376.757874 475.447937,374.785828 476.917816,373.665161 
	C475.466705,372.447083 474.163635,370.503815 472.531860,370.170654 
	C469.651764,369.582703 466.526978,370.259460 463.599060,369.802185 
	C462.599854,369.646149 461.231049,367.677277 461.223663,366.529053 
	C461.216309,365.387360 462.481750,363.683044 463.598053,363.227325 
	C465.030182,362.642700 466.870728,363.053467 468.535370,363.044373 
	C474.385468,363.012451 474.576202,362.761383 473.220184,355.992523 
	C470.252991,355.992523 467.107208,356.251251 464.046143,355.855164 
	C462.943176,355.712433 462.043793,353.996277 461.051514,352.998138 
	C462.054626,352.013733 462.923645,350.440491 464.090485,350.174713 
	C466.149353,349.705688 468.389862,350.040710 470.554291,350.027008 
	C476.388275,349.990082 476.577545,349.735016 475.229309,343.004913 
	C471.420074,343.004913 467.468781,343.004913 462.536377,343.005157 
M627.222168,318.342224 
	C624.379822,310.040649 621.444824,301.769043 618.743530,293.421875 
	C617.745239,290.337433 616.315918,288.830231 612.770935,288.890503 
	C609.298340,288.949554 607.239563,289.777985 606.251709,293.369080 
	C605.203308,297.180542 603.432739,300.786926 602.199768,304.555603 
	C600.288330,310.397949 598.565308,316.301880 596.721680,322.312317 
	C602.060669,323.698517 605.422729,323.423676 606.214111,317.768951 
	C606.359680,316.729156 608.367126,315.321655 609.636597,315.181030 
	C614.084534,314.688263 618.558289,314.259918 619.961853,320.544952 
	C620.224854,321.722778 623.826477,322.281464 625.970032,322.741272 
	C626.217590,322.794403 626.997009,320.368256 627.222168,318.342224 
M664.936401,308.495239 
	C664.946533,311.987183 665.075562,315.484039 664.930237,318.969513 
	C664.807007,321.925568 665.847351,323.193024 668.948425,323.062958 
	C673.596313,322.867981 678.258240,323.028748 682.913757,322.988098 
	C688.425415,322.939972 688.939148,322.089325 686.894287,316.000458 
	C683.549561,316.000458 680.071655,315.915558 676.600159,316.028870 
	C674.074524,316.111267 673.017944,315.157532 673.017029,312.553497 
	C673.016174,310.003265 673.938782,308.983673 676.524841,308.998108 
	C679.597595,309.015198 682.672302,308.681946 685.509460,308.514496 
	C687.017395,303.124146 685.111206,301.358185 680.437500,301.960480 
	C679.129395,302.129028 677.603027,302.372559 676.496094,301.873474 
	C675.181885,301.281006 674.212402,299.923889 673.093567,298.898102 
	C674.285461,297.933807 675.361938,296.404358 676.695190,296.132080 
	C678.928284,295.676056 681.325134,296.014557 683.653015,296.031921 
	C685.912109,296.048767 688.572388,296.009491 687.798767,292.850342 
	C687.431213,291.349335 685.358643,289.325348 683.912781,289.198486 
	C678.797058,288.749664 673.616943,289.091553 668.464478,288.982513 
	C665.880127,288.927826 664.900696,289.996246 664.944275,292.531921 
	C665.029968,297.518707 664.949890,302.508362 664.936401,308.495239 
M627.007141,355.384583 
	C624.535400,354.663940 620.823914,354.973694 622.814514,350.320892 
	C625.377625,350.320892 628.467834,349.371582 630.186218,350.504028 
	C634.810608,353.551727 635.894531,350.307434 638.210876,346.301422 
	C634.385010,344.800995 630.936646,342.797119 627.249939,342.148743 
	C621.038879,341.056396 614.764832,345.621216 614.047791,350.963409 
	C613.268250,356.770935 617.316101,361.696075 623.928467,363.024506 
	C625.544373,363.349182 627.339355,363.433929 628.685059,364.240906 
	C629.709900,364.855469 630.660217,366.430420 630.677856,367.592743 
	C630.689453,368.360077 628.842346,369.937256 628.081604,369.794830 
	C625.271545,369.268707 622.616699,367.890259 619.804749,367.405884 
	C618.075928,367.108093 615.703247,367.307159 614.506958,368.325470 
	C613.739990,368.978302 613.941772,372.059570 614.825317,373.137421 
	C618.647766,377.800293 631.000854,378.665466 635.615967,374.817017 
	C636.591614,374.003418 637.414673,372.834473 637.924561,371.662415 
	C641.323425,363.849823 637.489319,357.908691 627.007141,355.384583 
M425.137054,358.242920 
	C428.463318,359.845734 431.892975,361.270233 435.077698,363.117065 
	C437.039032,364.254486 438.626434,366.036652 440.381714,367.529388 
	C438.236542,368.336823 436.135620,369.568268 433.930206,369.798462 
	C432.525482,369.945099 430.857056,368.773987 429.503632,367.891876 
	C427.880920,366.834229 426.673828,364.886078 424.651306,367.518585 
	C422.921021,369.770691 422.907471,371.394592 424.937714,373.541931 
	C428.793732,377.620361 433.663940,377.017090 438.427643,376.967438 
	C444.047699,376.908905 447.701416,373.466614 448.720551,367.524384 
	C449.424072,363.422180 446.088531,358.441071 441.526245,357.020569 
	C439.009155,356.236877 436.327789,355.926331 433.887939,354.973663 
	C432.796021,354.547272 432.115540,353.067200 431.248352,352.065308 
	C432.275848,351.418610 433.294800,350.249420 434.332672,350.232391 
	C436.595215,350.195251 439.099335,350.247986 441.080231,351.173035 
	C443.906830,352.492981 445.523499,351.220917 446.053589,349.097137 
	C446.369446,347.831696 445.244537,345.407745 444.066895,344.740051 
	C441.837128,343.475739 438.923920,342.139984 436.618011,342.569611 
	C432.608978,343.316498 428.188782,344.594330 425.164703,347.116699 
	C422.166840,349.617218 422.064270,353.950867 425.137054,358.242920 
M577.944336,344.356934 
	C569.129883,339.919983 559.412415,342.972168 555.855713,351.294830 
	C551.391541,361.741058 555.265442,373.471832 564.203918,376.574341 
	C573.015137,379.632660 581.238159,375.787323 583.740234,367.163116 
	C582.197632,366.168579 580.575012,365.122437 578.719910,363.926453 
	C577.766968,365.161499 576.946899,366.154755 576.202576,367.201874 
	C573.875610,370.475555 570.295715,371.078491 567.408691,369.349152 
	C565.329041,368.103455 564.243652,364.918457 563.160706,362.406250 
	C562.617432,361.145813 562.684082,359.321014 563.152161,357.989655 
	C564.080261,355.350128 564.840515,351.735199 566.840576,350.616913 
	C569.444092,349.161163 573.174988,349.136017 575.848145,352.367432 
	C576.580627,353.252869 579.157532,353.533661 580.339294,352.960510 
	C584.557861,350.914490 584.017334,348.673584 577.944336,344.356934 
M507.979645,347.481628 
	C510.774780,355.968811 513.851624,364.377533 516.247620,372.975922 
	C517.466919,377.351562 520.323853,376.924072 523.498352,377.058502 
	C526.636658,377.191315 527.548340,375.701324 528.362671,372.810760 
	C530.287415,365.978790 532.911499,359.346375 535.148926,352.598785 
	C536.099792,349.731140 536.790405,346.777222 537.689392,343.537781 
	C533.119324,342.889343 529.674377,341.704620 528.448669,347.602753 
	C527.218750,353.520752 524.709839,359.172943 522.434753,365.908905 
	C520.102722,358.650116 517.876709,352.318909 516.064941,345.871338 
	C514.865234,341.601959 511.661926,343.304993 509.156982,343.245972 
	C508.723297,343.235779 508.236084,345.497528 507.979645,347.481628 
M803.578247,289.011688 
	C801.585083,289.017761 799.563232,288.824585 797.609497,289.105011 
	C796.446960,289.271820 794.945007,289.903137 794.372925,290.813873 
	C792.763428,293.376312 794.478027,296.278778 797.669128,295.904541 
	C803.296143,295.244629 804.396912,297.803558 804.048035,302.713623 
	C803.683960,307.836639 804.061462,313.008179 803.946960,318.154755 
	C803.880371,321.147522 804.102661,323.144806 808.094299,323.112061 
	C812.243286,323.078064 812.078369,320.741333 812.050293,317.936310 
	C811.997009,312.621796 812.258118,307.295013 811.979553,301.994812 
	C811.758362,297.785004 812.529724,295.162079 817.547974,295.993256 
	C820.145203,296.423401 821.012024,295.000031 821.030090,292.499664 
	C821.048523,289.941498 820.089233,288.913391 817.514038,288.983337 
	C813.198486,289.100616 808.877502,289.013275 803.578247,289.011688 
M453.907959,317.350464 
	C453.309631,321.522888 454.683899,323.491760 459.312500,323.102386 
	C463.937012,322.713379 468.620209,322.955139 473.275879,323.030823 
	C475.635773,323.069183 477.583618,322.393860 476.822906,319.762665 
	C476.402222,318.307648 474.763580,316.688171 473.311127,316.179932 
	C471.530792,315.557007 469.350159,315.831360 467.379608,316.050537 
	C463.368317,316.496765 461.661499,315.161774 461.922424,310.847443 
	C462.263214,305.213104 461.993225,299.542664 462.016876,293.887878 
	C462.027557,291.330200 462.344513,288.867920 458.388214,288.947510 
	C454.779816,289.020050 453.868622,290.700806 453.917236,293.934998 
	C454.029724,301.417267 453.929596,308.902679 453.907959,317.350464 
M448.157532,423.590302 
	C449.462158,420.420685 450.766785,417.251068 452.071442,414.081451 
	C451.588898,413.749939 451.106323,413.418427 450.623779,413.086945 
	C444.924164,414.521881 446.628876,422.064850 441.881104,425.119843 
	C441.573364,422.281677 441.494110,419.569397 440.910187,416.970520 
	C440.601685,415.597534 439.414124,414.422028 438.623474,413.157379 
	C437.498352,413.925751 435.926025,414.443390 435.329163,415.507965 
	C433.262024,419.194824 431.534241,423.071991 429.677277,426.876709 
	C428.854218,423.202881 429.072662,419.612000 428.720856,416.077820 
	C428.615570,415.020355 426.916992,414.121521 425.948334,413.149994 
	C425.296204,414.279083 424.058472,415.426331 424.092743,416.534210 
	C424.245880,421.478943 424.584747,426.437134 425.266571,431.333374 
	C425.447174,432.630341 426.891449,434.174103 428.141174,434.717041 
	C428.745575,434.979675 430.635071,433.406128 431.261902,432.283722 
	C433.099579,428.993073 434.595673,425.511719 436.814362,420.874359 
	C437.300995,425.101379 437.453064,428.139740 438.076294,431.078186 
	C438.368225,432.454681 439.569458,433.638275 440.358612,434.909271 
	C441.577057,434.072937 443.217651,433.497162 443.927582,432.346954 
	C445.489990,429.815521 446.582428,426.994019 448.157532,423.590302 
M702.019043,427.685303 
	C701.822021,428.822144 701.341431,430.000580 701.500610,431.085144 
	C701.694092,432.403534 702.426636,433.642822 702.926025,434.916321 
	C703.955627,433.914459 705.455627,433.087433 705.907776,431.870941 
	C706.639038,429.903046 706.721802,427.684570 707.006653,425.562256 
	C707.562195,421.423462 709.884338,420.495911 714.158936,421.681946 
	C713.755981,425.351715 713.261597,428.746368 713.092834,432.157135 
	C713.049622,433.029663 713.900635,434.099731 714.625732,434.771729 
	C714.870850,434.998901 716.573364,434.361450 716.629028,433.977112 
	C717.275146,429.513977 718.786560,424.817810 717.961365,420.595245 
	C717.033325,415.846954 712.352783,415.639191 708.259888,418.056915 
	C702.019897,417.730743 697.814941,417.447266 693.606506,417.377533 
	C693.120972,417.369476 692.313110,418.488251 692.168091,419.190613 
	C691.120056,424.266479 690.204285,429.369598 689.246582,434.464111 
	C689.752014,434.807739 690.257385,435.151367 690.762756,435.494995 
	C691.833984,434.435364 693.370300,433.558441 693.874023,432.275940 
	C694.766724,430.002991 695.060669,427.489471 695.552673,425.065948 
	C696.120911,422.267181 697.452515,420.303802 700.626038,421.198700 
	C704.040588,422.161530 702.904114,424.626648 702.019043,427.685303 
M541.011963,374.148682 
	C542.217529,379.303864 545.744141,376.340729 548.997192,376.748108 
	C548.997192,366.689453 548.972046,357.095795 549.014282,347.502411 
	C549.025330,344.996826 549.019836,342.919586 545.493164,342.942474 
	C541.978088,342.965332 540.864014,344.489746 540.916016,347.809570 
	C541.048523,356.276520 540.975037,364.746704 541.011963,374.148682 
M500.387848,422.024506 
	C499.949097,425.050751 498.542816,428.347260 499.295288,431.040710 
	C500.463135,435.221039 504.661652,435.708679 508.379639,434.843903 
	C513.293579,433.701050 515.548950,429.997406 515.935974,425.128052 
	C516.203308,421.765167 515.511230,418.672424 511.888794,417.513397 
	C507.348846,416.060730 503.482422,417.164948 500.387848,422.024506 
M663.049011,430.051758 
	C664.236328,435.393402 668.330811,435.380280 672.402527,434.863800 
	C677.727722,434.188293 681.149658,428.013123 679.943359,421.717743 
	C679.302490,418.373230 675.230652,416.297943 670.735779,417.024902 
	C665.917358,417.804230 663.102600,422.256500 663.049011,430.051758 
M740.428406,421.067963 
	C737.163452,425.789673 737.130371,431.036285 740.349609,433.579102 
	C743.557739,436.113159 749.576294,435.314575 752.528931,431.963013 
	C756.728027,427.196564 756.987915,422.349030 753.237610,418.742340 
	C750.087708,415.713043 745.564636,416.368164 740.428406,421.067963 
M721.787842,421.468567 
	C721.584106,425.209045 720.460999,429.219421 721.455933,432.607971 
	C722.313232,435.527679 728.927307,435.799133 732.217102,433.853729 
	C736.066467,431.577301 738.546021,424.783875 736.670898,420.779541 
	C734.906189,417.010742 731.238464,416.449799 727.758606,417.182251 
	C725.713501,417.612701 723.977356,419.510925 721.787842,421.468567 
M583.869751,417.045319 
	C577.240906,419.335175 572.999878,426.532532 575.670715,431.017303 
	C578.085754,435.072479 581.887817,435.745483 586.024597,434.738586 
	C589.348938,433.929413 593.619568,427.156494 592.916626,423.811859 
	C592.012939,419.512482 589.672241,416.558350 583.869751,417.045319 
M623.842102,430.149506 
	C624.193909,429.225525 624.519104,428.290344 624.901855,427.379364 
	C627.370239,421.504517 623.442505,416.311890 617.084595,417.055817 
	C611.742188,417.680908 607.246643,423.787048 608.027893,429.357147 
	C608.609436,433.503143 612.544495,436.061188 617.474915,434.786377 
	C619.680969,434.216034 621.512878,432.198425 623.842102,430.149506 
M458.289856,468.598846 
	C459.764587,461.968842 458.749786,459.404419 454.173950,458.198364 
	C449.227570,456.894684 443.436157,460.655548 442.169769,465.993622 
	C440.965759,471.069031 442.515228,474.497467 446.560455,475.708496 
	C451.807068,477.279175 456.495392,474.714722 458.289856,468.598846 
M497.922302,466.776215 
	C497.864502,460.331116 496.278229,458.280273 491.150482,458.021271 
	C486.157990,457.769043 481.087128,461.818390 481.149689,466.712189 
	C481.183807,469.381622 481.878387,473.049164 483.679260,474.414764 
	C485.594330,475.866913 489.303619,475.764099 491.986786,475.195343 
	C495.691711,474.409973 496.882507,470.874054 497.922302,466.776215 
M476.532318,434.983582 
	C483.482300,434.123169 488.673767,427.429260 486.476715,422.049164 
	C484.926636,418.253387 482.176910,416.373444 477.902191,417.031677 
	C473.396820,417.725433 468.995667,422.569458 469.132843,427.679413 
	C469.238647,431.619843 471.384094,434.480957 476.532318,434.983582 
M422.128052,471.776276 
	C421.696472,475.718628 421.264893,479.660950 420.833313,483.603302 
	C421.648895,483.822876 422.464478,484.042480 423.280060,484.262054 
	C424.427765,481.132538 425.575470,478.003052 426.731201,474.874298 
	C434.158875,477.630463 441.126282,472.919098 440.975800,465.242096 
	C440.875427,460.121887 438.139679,457.647156 433.063171,458.059631 
	C430.659271,458.254944 428.252289,458.412689 425.437317,458.617126 
	C425.347534,458.754059 424.795441,459.254791 424.667328,459.847198 
	C423.868530,463.540375 423.164581,467.254089 422.128052,471.776276 
M474.530182,455.867920 
	C472.565430,459.904114 468.796967,458.230133 465.862427,458.215210 
	C463.242737,458.201874 462.278900,458.795319 461.952820,461.313293 
	C461.552368,464.405334 460.635132,467.432068 460.264771,470.525757 
	C460.056793,472.263123 460.501465,474.078613 460.652100,475.858887 
	C461.275970,475.995422 461.899872,476.131927 462.523743,476.268463 
	C463.355743,474.323761 464.294830,472.416473 464.990723,470.424225 
	C465.743164,468.270111 465.835571,465.743744 467.052246,463.945648 
	C467.805298,462.832794 470.116760,462.774445 471.728699,462.242798 
	C472.080475,463.561188 472.671997,464.871735 472.715271,466.200165 
	C472.756989,467.480988 471.969543,468.790222 472.018219,470.069031 
	C472.092499,472.020325 472.386627,475.576813 472.910828,475.637054 
	C476.463043,476.045258 475.615814,472.990387 476.126740,470.836182 
	C476.819305,467.916077 477.928375,465.095398 478.844208,462.227417 
	C479.354919,460.628052 479.836060,459.019257 480.330566,457.414734 
	C480.071503,457.347565 479.812439,457.280426 479.553406,457.213257 
	C480.267914,455.835297 480.982452,454.457336 481.697021,453.079407 
	C480.067413,453.073853 478.391876,452.842133 476.827942,453.159790 
	C476.065643,453.314575 475.511566,454.494354 474.530182,455.867920 
M450.533386,431.814056 
	C451.055481,432.852631 451.577545,433.891235 452.099670,434.929840 
	C453.066010,434.021942 454.544159,433.278137 454.898254,432.173859 
	C455.794708,429.378418 455.771149,426.232697 456.960754,423.610535 
	C457.529694,422.356384 460.015686,421.971924 461.633423,421.193573 
	C462.201202,422.537292 463.222992,423.878021 463.231842,425.225433 
	C463.245575,427.319672 462.307861,429.416504 462.292542,431.516052 
	C462.284302,432.642761 463.359344,433.777405 463.945587,434.908478 
	C464.963531,434.039673 466.411072,433.356201 466.886871,432.253448 
	C467.438232,430.975403 467.257874,429.322388 467.178070,427.843872 
	C467.018433,424.886566 467.700928,421.169037 466.178253,419.206635 
	C464.735443,417.347168 460.916840,417.331116 458.265015,416.540680 
	C457.760223,415.378113 457.060181,413.765900 456.360168,412.153687 
	C455.346710,413.582764 453.788483,414.885254 453.421631,416.464508 
	C452.305878,421.267181 451.650238,426.176758 450.533386,431.814056 
M551.961609,468.024902 
	C552.014343,459.855957 549.519897,457.121887 542.858887,458.047546 
	C537.899963,458.736664 533.254150,464.830048 534.052979,469.597260 
	C534.807190,474.097656 539.408325,477.474396 544.118042,475.717041 
	C547.147278,474.586761 549.336548,471.205414 551.961609,468.024902 
M553.996399,468.535248 
	C553.820740,469.673126 553.388672,470.845245 553.534973,471.940094 
	C553.714294,473.282745 554.377441,474.560791 554.831482,475.866730 
	C555.885071,474.693237 557.367249,473.682526 557.889648,472.307220 
	C558.632629,470.351410 558.590820,468.111115 559.026489,466.021973 
	C559.818604,462.223480 562.180725,461.486450 566.168701,462.679626 
	C565.765808,466.331451 565.272400,469.711426 565.099976,473.107666 
	C565.054932,473.994293 565.855713,475.107849 566.590515,475.745453 
	C566.832092,475.955048 568.666443,475.117828 568.791626,474.545013 
	C569.627258,470.719177 570.774841,466.807892 570.592468,462.982941 
	C570.510315,461.260590 567.817993,458.589264 565.938599,458.215393 
	C558.518799,456.739349 556.215088,458.541626 554.560852,465.764679 
	C554.413574,466.407990 554.210693,467.038544 553.996399,468.535248 
M634.249878,421.519257 
	C637.756653,420.190765 639.348755,421.400391 638.937073,425.122131 
	C638.683411,427.415131 638.152527,429.691681 638.091614,431.984802 
	C638.066956,432.912964 638.961975,433.865570 639.438477,434.807068 
	C640.357727,434.107941 641.765625,433.586853 642.098267,432.673950 
	C642.876709,430.537384 643.119751,428.208557 643.615051,425.965454 
	C644.940125,419.965088 642.041321,416.555725 635.991943,417.044769 
	C634.702393,417.149048 633.304932,417.727783 632.154236,417.398804 
	C628.856934,416.456024 628.502014,418.704498 628.046326,420.842468 
	C627.361389,424.056366 626.553833,427.277008 626.297241,430.534088 
	C626.186218,431.943970 627.318481,433.451782 627.886047,434.915161 
	C628.927124,433.726776 630.391846,432.700745 630.922180,431.316650 
	C632.071350,428.317169 632.742493,425.134460 634.249878,421.519257 
M564.614746,430.899261 
	C559.787598,428.739075 561.971741,425.161499 563.664368,422.730133 
	C565.125549,420.631348 567.872925,419.716034 570.274841,422.782227 
	C570.996887,423.703979 573.103027,423.541565 575.025208,423.978027 
	C574.282227,418.286713 571.330200,416.930145 567.219421,417.018768 
	C561.992737,417.131531 558.955078,420.140839 557.615234,426.484619 
	C556.814331,430.276733 558.519470,432.997925 561.630615,434.605072 
	C565.533997,436.621582 569.792358,434.723541 574.777527,428.408691 
	C572.187744,428.770508 570.708557,428.816589 569.331299,429.215149 
	C567.968384,429.609558 566.708435,430.359711 564.614746,430.899261 
M649.066650,419.430573 
	C648.003052,420.693451 646.170166,421.877686 646.031433,423.235077 
	C645.714478,426.334503 645.230774,430.166138 646.722168,432.460815 
	C647.885925,434.251465 651.962036,434.890808 654.671936,434.740784 
	C657.806824,434.567261 660.390381,432.512207 660.966370,427.819031 
	C657.202148,429.064789 654.015625,430.119354 650.829041,431.173950 
	C650.372925,430.738739 649.916870,430.303528 649.460754,429.868347 
	C650.238892,427.199249 650.310547,423.907562 651.974731,422.019257 
	C654.037354,419.678711 656.730164,421.090912 658.715210,423.428986 
	C659.083984,423.863281 661.122253,423.698822 661.277649,423.335266 
	C661.672974,422.410370 661.808716,421.041138 661.392029,420.160278 
	C659.613342,416.400238 655.021545,415.977814 649.066650,419.430573 
M510.664886,462.711029 
	C512.002625,463.423279 513.316772,464.193909 514.714355,464.757538 
	C514.854309,464.813965 515.990845,463.374451 515.826843,463.038605 
	C515.148682,461.650238 514.290405,459.470551 513.238403,459.312653 
	C510.337769,458.877258 506.861115,458.409882 504.429626,459.610474 
	C500.624207,461.489471 498.353638,465.129639 499.024689,469.897675 
	C499.652130,474.356140 502.366180,476.052368 506.600159,476.005737 
	C511.255920,475.954468 514.086487,473.615479 514.510742,468.322968 
	C512.394043,469.448669 510.883240,470.520813 509.201569,471.065338 
	C507.736206,471.539825 506.012939,471.729614 504.535004,471.419342 
	C503.879089,471.281647 503.151672,469.608765 503.136383,468.622192 
	C503.072296,464.488800 505.593048,462.276001 510.664886,462.711029 
M517.969421,469.574921 
	C518.616577,471.641266 518.695496,474.396576 520.094910,475.550812 
	C521.168945,476.436615 523.907898,475.303802 525.906372,475.068726 
	C526.060364,474.605042 526.214355,474.141357 526.368286,473.677673 
	C519.352112,471.319672 523.696411,466.621277 523.165100,462.736847 
	C524.861084,462.199036 526.345520,461.728333 528.944763,460.904144 
	C527.070374,459.350983 525.886536,458.463257 524.814941,457.456055 
	C523.736328,456.442261 522.769470,455.309631 521.753540,454.229065 
	C520.243652,456.440033 518.061157,458.473022 517.415466,460.912720 
	C516.785034,463.294922 517.723816,466.092438 517.969421,469.574921 
M600.100708,411.767029 
	C598.912476,412.813782 596.944214,413.687531 596.667236,414.936401 
	C595.252991,421.312225 594.275513,427.784943 592.968384,435.231506 
	C595.048218,434.620148 597.512390,434.403198 597.616333,433.787720 
	C598.814453,426.692139 599.654785,419.536133 600.100708,411.767029 
M604.021423,413.844696 
	C603.014465,419.691803 601.891174,425.523407 601.107422,431.400299 
	C600.966187,432.459747 602.221619,433.705444 602.832214,434.865173 
	C603.583191,433.992554 604.804993,433.216919 605.007935,432.231476 
	C606.236450,426.265839 607.300537,420.262878 608.233948,414.243591 
	C608.377625,413.316986 607.562317,412.241669 607.190552,411.235138 
	C606.171753,411.841156 605.152893,412.447205 604.021423,413.844696 
M488.067078,429.468597 
	C487.764832,431.044800 487.462555,432.621033 487.157806,434.210114 
	C491.392242,434.805389 491.316589,434.788513 492.036987,431.559296 
	C493.003113,427.228821 492.406281,422.006409 498.301178,420.308777 
	C498.663086,420.204529 498.537262,418.406677 498.650024,417.280304 
	C490.010925,418.366516 490.019287,418.367706 488.834717,426.757416 
	C488.743774,427.401428 488.417175,428.012146 488.067078,429.468597 
M528.417297,465.962494 
	C527.963623,468.047302 527.242676,470.121552 527.159363,472.221039 
	C527.111511,473.428009 528.096680,474.675903 528.616821,475.905365 
	C529.736450,474.994873 531.484497,474.282166 531.846130,473.133148 
	C532.622925,470.664825 532.846863,467.980652 532.992676,465.367859 
	C533.129089,462.924408 536.063171,459.739227 531.654724,458.509186 
	C531.337952,458.420807 529.759216,462.854889 528.417297,465.962494 
z"/>
<path fill="#0A2641" opacity="1.000000" stroke="none" 
	d="
M125.983047,338.000000 
	C125.980682,313.502197 126.087929,289.503387 125.877052,265.507416 
	C125.838158,261.081879 127.112343,259.897919 131.503723,259.904694 
	C208.829803,260.024292 286.156189,260.015320 363.482269,259.883606 
	C367.845367,259.876190 369.130951,261.025665 369.123322,265.472656 
	C368.991180,342.465424 368.994446,419.458496 369.115753,496.451263 
	C369.122650,500.824493 367.927551,502.103180 363.494843,502.095978 
	C286.335449,501.970154 209.175705,501.967896 132.016357,502.114075 
	C127.214615,502.123169 125.852943,500.825134 125.868774,495.985077 
	C126.040436,443.490479 125.980118,390.995148 125.983047,338.000000 
M210.704788,407.813629 
	C215.835510,415.195160 220.935760,422.598297 226.128433,429.935974 
	C226.946243,431.091614 228.161087,432.788422 229.228683,432.815765 
	C238.243240,433.046661 247.266251,432.947510 256.973419,432.947510 
	C255.878464,431.252625 255.383331,430.404541 254.810974,429.612274 
	C243.014526,413.282471 231.282715,396.904877 219.335205,380.686249 
	C217.287415,377.906372 217.312408,376.124268 219.352295,373.363190 
	C230.233887,358.634583 240.895187,343.743134 251.609818,328.891541 
	C252.398270,327.798676 253.006180,326.575592 254.033157,324.849945 
	C245.325089,324.849945 237.501663,324.709320 229.692230,324.976898 
	C228.251190,325.026276 226.446686,326.425537 225.523361,327.713287 
	C218.831329,337.046539 212.332108,346.517883 205.742966,355.925323 
	C204.944489,357.065308 203.973419,358.084412 202.826309,359.468475 
	C195.146500,348.651978 187.859558,338.324707 180.473724,328.068665 
	C179.566116,326.808319 178.156738,325.050323 176.934677,325.013245 
	C168.229004,324.749115 159.511597,324.872406 149.958191,324.872406 
	C151.632614,327.355347 152.686920,329.001862 153.822754,330.590057 
	C164.185471,345.079620 174.478241,359.620697 185.005447,373.989960 
	C187.132050,376.892670 187.220474,378.842133 185.045288,381.773010 
	C173.636353,397.145752 162.448868,412.682922 151.198883,428.173431 
	C150.199493,429.549530 149.303986,431.001099 147.972626,432.999451 
	C157.275848,432.999451 165.601135,433.150421 173.911514,432.865875 
	C175.482071,432.812103 177.467682,431.365692 178.453537,429.984833 
	C184.062851,422.128143 189.418793,414.090759 194.878387,406.126801 
	C197.194458,402.748291 199.553116,399.398987 202.200699,395.593262 
	C205.172501,399.879181 207.722855,403.557312 210.704788,407.813629 
M267.039642,405.500000 
	C267.039642,414.584320 267.039642,423.668640 267.039642,432.608887 
	C293.885254,432.608887 319.945862,432.608887 346.300293,432.608887 
	C346.300293,427.734253 346.001160,423.219513 346.382355,418.762939 
	C346.782745,414.082397 345.413330,412.398376 340.434814,412.546356 
	C328.286041,412.907379 316.119263,412.664093 303.959747,412.664062 
	C300.173126,412.664062 296.386475,412.664032 292.057739,412.664032 
	C292.057739,383.174927 292.057739,354.288300 292.057739,325.233948 
	C283.467804,325.233948 275.439270,325.233948 267.039673,325.233948 
	C267.039673,351.919861 267.039673,378.209930 267.039642,405.500000 
M270.500000,488.157379 
	C297.911774,488.157379 325.323547,488.157379 352.581421,488.157379 
	C352.581421,484.283997 352.581421,481.232025 352.581421,478.287262 
	C282.242981,478.287262 212.314621,478.287262 142.286285,478.287262 
	C142.286285,481.642181 142.286285,484.707153 142.286285,488.157471 
	C184.907333,488.157471 227.203674,488.157471 270.500000,488.157379 
z"/>
<path fill="#2D2D2D" opacity="1.000000" stroke="none" 
	d="
M513.903870,317.893860 
	C512.915222,320.775604 512.384583,323.189240 508.622192,323.133667 
	C505.022491,323.080475 504.798035,320.700775 503.969482,318.420013 
	C502.511902,314.407898 501.017181,310.409241 498.986877,306.386047 
	C498.986877,310.735779 499.249786,315.111359 498.826508,319.419525 
	C498.699738,320.709900 496.845795,322.445496 495.450897,322.860565 
	C493.009552,323.586975 492.019318,321.971436 491.962250,319.457611 
	C491.754791,310.317200 491.292450,301.181000 491.231049,292.041138 
	C491.224335,291.049316 493.200836,289.203033 494.251282,289.207489 
	C497.073883,289.219452 500.741272,287.405853 502.176941,292.017456 
	C504.083008,298.139893 506.269714,304.174988 508.828247,311.694794 
	C511.438263,304.397003 513.411743,298.364471 515.819031,292.510284 
	C516.419128,291.050964 518.298401,289.390015 519.796997,289.157349 
	C525.438293,288.281372 526.011353,288.969604 526.022034,294.793091 
	C526.038879,303.921997 526.026489,313.050964 526.026489,322.023376 
	C519.603394,323.850342 519.029724,323.480438 518.985168,317.814850 
	C518.952515,313.657867 518.978821,309.500427 518.266113,305.136627 
	C516.847534,309.260742 515.429016,313.384827 513.903870,317.893860 
z"/>
<path fill="#2D2D2D" opacity="1.000000" stroke="none" 
	d="
M692.901794,289.921509 
	C700.293579,287.564178 701.864685,288.315521 704.185974,295.195801 
	C705.912598,300.313354 707.700012,305.410370 709.880188,311.734283 
	C712.035522,305.656494 713.795349,300.803864 715.477783,295.924561 
	C718.136475,288.214111 718.114563,288.206543 726.726440,290.235168 
	C726.994080,301.306183 727.006226,311.613647 727.018372,321.921112 
	C724.922241,322.334259 722.826111,322.747406 720.237183,323.257660 
	C720.237183,316.750427 720.237183,311.153534 720.237183,305.556610 
	C719.896729,305.473053 719.556274,305.389465 719.215820,305.305908 
	C717.784546,309.602509 716.408569,313.918610 714.900635,318.188141 
	C714.039429,320.626617 713.518005,323.149078 709.763367,323.131744 
	C706.269287,323.115570 705.796631,320.932281 704.975952,318.577423 
	C703.536621,314.447021 702.026917,310.341156 700.020996,306.323212 
	C700.020996,309.777527 699.727356,313.263153 700.091064,316.678711 
	C700.612793,321.578064 699.105042,323.986877 693.511475,322.573090 
	C693.428040,312.455811 693.749146,302.768280 693.945984,293.078247 
	C693.967224,292.033539 693.267212,290.974121 692.901794,289.921509 
z"/>
<path fill="#D0D5DB" opacity="1.000000" stroke="none" 
	d="
M390.978943,365.920166 
	C390.987122,337.269073 390.944458,308.617798 391.046173,279.967041 
	C391.066589,274.213928 391.479919,268.446564 392.071075,262.722870 
	C392.205322,261.422821 393.833221,260.277039 394.773621,259.060242 
	C395.511871,260.292755 396.902130,261.533722 396.886261,262.756439 
	C396.746613,273.510681 396.356567,284.261688 395.796783,295.787445 
	C395.367371,297.861664 395.020020,299.162048 395.019531,300.462524 
	C394.994110,364.762054 394.985718,429.061615 395.075531,493.361023 
	C395.077698,494.905151 396.212585,496.447723 396.819122,497.991028 
	C396.535706,500.632202 398.703766,505.142487 394.860657,505.297546 
	C390.650482,505.467316 392.128967,500.748230 392.053772,497.962982 
	C391.892334,491.980682 392.007568,485.990906 391.995483,479.067108 
	C391.984833,462.524811 392.014587,446.919556 391.955200,431.314606 
	C391.948517,429.556335 391.438263,427.800018 391.161499,426.042786 
	C391.108490,417.031677 391.055511,408.020538 390.993042,398.072235 
	C390.982025,386.730072 390.980469,376.325134 390.978943,365.920166 
M392.983826,359.500000 
	C392.983826,383.180756 392.983826,406.861481 392.983826,430.542236 
	C393.202881,430.540588 393.421936,430.538910 393.640991,430.537262 
	C393.640991,379.244385 393.640991,327.951538 393.640991,276.658691 
	C393.421936,276.658875 393.202850,276.659058 392.983795,276.659241 
	C392.983795,303.939514 392.983795,331.219757 392.983826,359.500000 
z"/>
<path fill="#2C2C2C" opacity="1.000000" stroke="none" 
	d="
M773.229858,306.844299 
	C772.289185,305.455475 771.570435,304.344421 770.001587,301.919312 
	C770.001587,308.186340 769.908203,313.153473 770.036255,318.114929 
	C770.114441,321.144653 769.807678,323.172180 765.856628,323.104797 
	C762.157104,323.041718 761.939514,321.127533 761.967834,318.323334 
	C762.048645,310.332153 761.836609,302.334686 762.095337,294.351196 
	C762.152466,292.588776 763.364075,289.706024 764.589966,289.377747 
	C767.223938,288.672455 770.369812,288.003937 772.400574,291.605865 
	C775.376160,296.883667 778.859375,301.875336 783.014526,306.773865 
	C783.014526,301.078705 783.014526,295.383575 783.014526,289.829651 
	C790.071533,288.250336 790.999451,288.926575 791.011780,295.204041 
	C791.026550,302.696716 791.161560,310.193909 790.923950,317.678925 
	C790.867859,319.446136 789.903076,322.285645 788.705017,322.686920 
	C786.185791,323.530579 783.260071,323.656067 781.468262,320.282562 
	C779.063049,315.753937 776.148010,311.496124 773.229858,306.844299 
z"/>
<path fill="#2F2F2F" opacity="1.000000" stroke="none" 
	d="
M577.375427,295.619019 
	C580.134460,299.933533 582.697815,303.935181 585.262329,307.938660 
	C585.262329,302.772034 585.021606,297.696594 585.427002,292.673340 
	C585.531921,291.374054 587.556824,289.438965 588.893921,289.261932 
	C590.125061,289.098907 592.785706,290.872681 592.814148,291.851410 
	C593.107544,301.957214 592.994324,312.074799 592.994324,322.234680 
	C588.514709,323.762604 585.344727,323.365479 583.008850,319.163635 
	C580.149536,314.020142 576.886963,309.100891 573.060547,302.885681 
	C573.060547,308.371063 573.075623,312.456848 573.057129,316.542480 
	C573.027527,323.089203 572.493591,323.517700 565.037048,322.414978 
	C565.037048,312.114960 564.992432,301.695160 565.131470,291.277863 
	C565.141418,290.536041 566.572571,289.132629 567.217712,289.201935 
	C569.561584,289.453735 572.082947,289.787445 574.084351,290.903076 
	C575.495728,291.689789 576.174133,293.791534 577.375427,295.619019 
z"/>
<path fill="#2F2F2F" opacity="1.000000" stroke="none" 
	d="
M655.725769,292.236877 
	C658.690125,296.360748 658.690125,296.360748 652.946655,299.774628 
	C651.415466,298.620789 650.039856,297.000214 648.306946,296.383606 
	C642.153870,294.194305 638.165771,297.187531 638.078064,303.765686 
	C638.047058,306.094818 637.790100,308.459320 638.096375,310.746033 
	C638.634949,314.767365 641.359497,316.007660 645.200806,316.047668 
	C649.010803,316.087311 650.650513,314.453705 650.692810,310.393280 
	C648.295898,310.144836 646.051575,309.912231 643.876221,309.686737 
	C642.319824,303.942657 642.957397,303.019745 648.551086,302.987122 
	C660.672974,302.916443 658.856445,302.306824 658.988831,313.385620 
	C659.006714,314.883270 659.176270,316.411041 658.942017,317.871338 
	C658.676208,319.527924 658.281250,322.359497 657.510193,322.513275 
	C655.271484,322.959808 652.816528,322.321930 650.493958,321.575531 
	C644.904663,324.329132 637.117798,324.512848 631.829529,317.306091 
	C627.362305,311.218201 628.188721,297.882935 633.799561,292.744476 
	C638.823120,288.143921 648.309753,285.467346 655.725769,292.236877 
z"/>
<path fill="#2D2D2D" opacity="1.000000" stroke="none" 
	d="
M496.672394,369.481506 
	C495.871124,367.599823 495.514679,365.789917 494.437134,364.680328 
	C493.541748,363.758331 491.779144,363.305542 490.439972,363.377350 
	C489.928864,363.404724 489.335938,365.436401 489.126678,366.616089 
	C488.897491,367.908234 489.067200,369.271362 489.065369,370.603577 
	C489.055908,377.419373 489.056183,377.419373 480.999664,376.573944 
	C480.999664,372.788605 481.000244,368.882355 480.999573,364.976105 
	C480.998505,358.981018 481.115509,352.982513 480.945679,346.992218 
	C480.858490,343.916229 482.042938,342.799377 485.037659,342.977051 
	C487.858704,343.144379 490.717163,343.222992 493.524323,342.963654 
	C498.600342,342.494690 502.831726,344.352386 504.549988,348.873413 
	C506.199371,353.213196 505.135376,357.764313 500.706329,360.497803 
	C501.837494,362.820526 503.013184,364.845673 503.829742,367.006531 
	C504.935333,369.932312 505.765442,372.962219 506.711090,375.939087 
	C499.571594,378.378479 498.282288,377.553406 496.672394,369.481506 
M489.173859,355.152832 
	C491.124420,355.554779 493.500336,356.809723 494.901978,356.110840 
	C496.217102,355.455109 496.502045,352.733307 497.593445,350.053467 
	C493.152924,350.636292 488.634125,347.877655 489.173859,355.152832 
z"/>
<path fill="#2D2D2D" opacity="1.000000" stroke="none" 
	d="
M743.526367,315.794464 
	C746.785950,315.945801 749.616577,315.969452 752.446899,316.011261 
	C757.924683,316.092133 758.324097,316.577606 757.496033,322.921295 
	C750.513000,322.921295 743.411743,323.022186 736.322021,322.781891 
	C735.518799,322.754639 734.135254,320.819794 734.114014,319.747833 
	C733.935913,310.757751 733.849609,301.756348 734.195496,292.776031 
	C734.245544,291.476288 736.655273,289.319366 738.114258,289.193237 
	C743.239197,288.750183 748.427429,289.096649 753.588379,288.988617 
	C756.248352,288.932922 757.012146,290.152344 757.031311,292.623016 
	C757.051880,295.279236 755.878723,296.162933 753.393250,296.047974 
	C750.899902,295.932709 748.321655,295.638855 745.927856,296.134369 
	C744.487366,296.432556 743.328003,298.088989 742.042358,299.135071 
	C743.251221,300.081909 744.337830,301.334717 745.706543,301.881439 
	C746.855835,302.340515 748.333862,301.969299 749.666260,301.978516 
	C755.418091,302.018433 755.625122,302.307037 754.235107,309.100769 
	C751.923523,309.100769 749.476807,309.089386 747.030273,309.103119 
	C741.516418,309.134033 740.916565,310.141754 743.526367,315.794464 
z"/>
<path fill="#2E2E2E" opacity="1.000000" stroke="none" 
	d="
M534.817322,322.985199 
	C531.076782,323.276367 529.152527,322.594513 530.609802,318.563965 
	C533.820129,309.684509 536.676270,300.673096 540.082581,291.872528 
	C540.616028,290.494324 543.260498,289.234955 544.962219,289.190247 
	C546.929993,289.138550 550.212219,289.999298 550.719055,291.313965 
	C554.410828,300.888702 557.560608,310.673096 560.825073,320.410187 
	C561.010071,320.962036 560.696716,321.680969 560.607910,322.380554 
	C556.066040,323.894562 553.003357,323.376282 551.729004,317.986053 
	C550.607544,313.242676 546.283020,315.137512 543.326721,315.260376 
	C541.819519,315.322998 540.288696,317.280884 538.963867,318.581055 
	C537.599182,319.920258 536.471863,321.501312 534.817322,322.985199 
M546.312866,307.842987 
	C546.312866,304.935394 546.312866,302.027802 546.312866,299.120239 
	C545.957581,299.096069 545.602295,299.071930 545.247009,299.047791 
	C544.419128,301.869385 543.591187,304.690979 542.647949,307.905731 
	C543.985413,307.905731 544.788696,307.905731 546.312866,307.842987 
z"/>
<path fill="#2C2C2C" opacity="1.000000" stroke="none" 
	d="
M463.026947,343.005035 
	C467.468781,343.004913 471.420074,343.004913 475.229309,343.004913 
	C476.577545,349.735016 476.388275,349.990082 470.554291,350.027008 
	C468.389862,350.040710 466.149353,349.705688 464.090485,350.174713 
	C462.923645,350.440491 462.054626,352.013733 461.051514,352.998138 
	C462.043793,353.996277 462.943176,355.712433 464.046143,355.855164 
	C467.107208,356.251251 470.252991,355.992523 473.220184,355.992523 
	C474.576202,362.761383 474.385468,363.012451 468.535370,363.044373 
	C466.870728,363.053467 465.030182,362.642700 463.598053,363.227325 
	C462.481750,363.683044 461.216309,365.387360 461.223663,366.529053 
	C461.231049,367.677277 462.599854,369.646149 463.599060,369.802185 
	C466.526978,370.259460 469.651764,369.582703 472.531860,370.170654 
	C474.163635,370.503815 475.466705,372.447083 476.917847,373.665161 
	C475.447937,374.785828 474.041229,376.757874 472.496643,376.872528 
	C467.198914,377.265747 461.836884,377.225830 456.536987,376.837708 
	C455.286621,376.746155 453.206970,374.677887 453.168152,373.465759 
	C452.880432,364.484009 453.061646,355.488342 452.980713,346.498108 
	C452.957397,343.912415 454.002960,342.863586 456.543457,342.993256 
	C458.536102,343.094910 460.538391,343.008179 463.026947,343.005035 
z"/>
<path fill="#2D2D2D" opacity="1.000000" stroke="none" 
	d="
M627.376038,318.716919 
	C626.997009,320.368256 626.217590,322.794403 625.970032,322.741272 
	C623.826477,322.281464 620.224854,321.722778 619.961853,320.544952 
	C618.558289,314.259918 614.084534,314.688263 609.636597,315.181030 
	C608.367126,315.321655 606.359680,316.729156 606.214111,317.768951 
	C605.422729,323.423676 602.060669,323.698517 596.721680,322.312317 
	C598.565308,316.301880 600.288330,310.397949 602.199768,304.555603 
	C603.432739,300.786926 605.203308,297.180542 606.251709,293.369080 
	C607.239563,289.777985 609.298340,288.949554 612.770935,288.890503 
	C616.315918,288.830231 617.745239,290.337433 618.743530,293.421875 
	C621.444824,301.769043 624.379822,310.040649 627.376038,318.716919 
M610.545959,303.948608 
	C610.302490,305.154938 610.059021,306.361267 609.710815,308.086761 
	C611.735718,307.840302 613.226013,307.658905 615.105225,307.430145 
	C614.160461,304.241058 613.406311,301.695404 612.497864,298.628815 
	C611.810425,300.535370 611.315002,301.909302 610.545959,303.948608 
z"/>
<path fill="#2D2D2D" opacity="1.000000" stroke="none" 
	d="
M664.937378,307.996033 
	C664.949890,302.508362 665.029968,297.518707 664.944275,292.531921 
	C664.900696,289.996246 665.880127,288.927826 668.464478,288.982513 
	C673.616943,289.091553 678.797058,288.749664 683.912781,289.198486 
	C685.358643,289.325348 687.431213,291.349335 687.798767,292.850342 
	C688.572388,296.009491 685.912109,296.048767 683.653015,296.031921 
	C681.325134,296.014557 678.928284,295.676056 676.695190,296.132080 
	C675.361938,296.404358 674.285461,297.933807 673.093567,298.898132 
	C674.212402,299.923889 675.181885,301.281006 676.496094,301.873474 
	C677.603027,302.372559 679.129395,302.129028 680.437500,301.960480 
	C685.111206,301.358185 687.017395,303.124146 685.509460,308.514496 
	C682.672302,308.681946 679.597595,309.015198 676.524841,308.998108 
	C673.938782,308.983673 673.016174,310.003265 673.017029,312.553497 
	C673.017944,315.157532 674.074524,316.111267 676.600159,316.028870 
	C680.071655,315.915558 683.549561,316.000458 686.894287,316.000458 
	C688.939148,322.089325 688.425415,322.939972 682.913757,322.988098 
	C678.258240,323.028748 673.596313,322.867981 668.948425,323.062958 
	C665.847351,323.193024 664.807007,321.925568 664.930237,318.969513 
	C665.075562,315.484039 664.946533,311.987183 664.937378,307.996033 
z"/>
<path fill="#2E2E2E" opacity="1.000000" stroke="none" 
	d="
M627.370117,355.556458 
	C637.489319,357.908691 641.323425,363.849823 637.924561,371.662415 
	C637.414673,372.834473 636.591614,374.003418 635.615967,374.817017 
	C631.000854,378.665466 618.647766,377.800293 614.825317,373.137421 
	C613.941772,372.059570 613.739990,368.978302 614.506958,368.325470 
	C615.703247,367.307159 618.075928,367.108093 619.804749,367.405884 
	C622.616699,367.890259 625.271545,369.268707 628.081604,369.794830 
	C628.842346,369.937256 630.689453,368.360077 630.677856,367.592743 
	C630.660217,366.430420 629.709900,364.855469 628.685059,364.240906 
	C627.339355,363.433929 625.544373,363.349182 623.928467,363.024506 
	C617.316101,361.696075 613.268250,356.770935 614.047791,350.963409 
	C614.764832,345.621216 621.038879,341.056396 627.249939,342.148743 
	C630.936646,342.797119 634.385010,344.800995 638.210876,346.301422 
	C635.894531,350.307434 634.810608,353.551727 630.186218,350.504028 
	C628.467834,349.371582 625.377625,350.320892 622.814514,350.320892 
	C620.823914,354.973694 624.535400,354.663940 627.370117,355.556458 
z"/>
<path fill="#2D2D2D" opacity="1.000000" stroke="none" 
	d="
M424.972900,357.894653 
	C422.064270,353.950867 422.166840,349.617218 425.164703,347.116699 
	C428.188782,344.594330 432.608978,343.316498 436.618011,342.569611 
	C438.923920,342.139984 441.837128,343.475739 444.066895,344.740051 
	C445.244537,345.407745 446.369446,347.831696 446.053589,349.097137 
	C445.523499,351.220917 443.906830,352.492981 441.080231,351.173035 
	C439.099335,350.247986 436.595215,350.195251 434.332672,350.232391 
	C433.294800,350.249420 432.275848,351.418610 431.248352,352.065308 
	C432.115540,353.067200 432.796021,354.547272 433.887939,354.973663 
	C436.327789,355.926331 439.009155,356.236877 441.526245,357.020569 
	C446.088531,358.441071 449.424072,363.422180 448.720551,367.524384 
	C447.701416,373.466614 444.047699,376.908905 438.427643,376.967438 
	C433.663940,377.017090 428.793732,377.620361 424.937714,373.541931 
	C422.907471,371.394592 422.921021,369.770691 424.651306,367.518585 
	C426.673828,364.886078 427.880920,366.834229 429.503632,367.891876 
	C430.857056,368.773987 432.525482,369.945099 433.930206,369.798462 
	C436.135620,369.568268 438.236542,368.336823 440.381714,367.529358 
	C438.626434,366.036652 437.039032,364.254486 435.077698,363.117065 
	C431.892975,361.270233 428.463318,359.845734 424.972900,357.894653 
z"/>
<path fill="#2F2F2F" opacity="1.000000" stroke="none" 
	d="
M578.261230,344.572876 
	C584.017334,348.673584 584.557861,350.914490 580.339294,352.960510 
	C579.157532,353.533661 576.580627,353.252869 575.848145,352.367432 
	C573.174988,349.136017 569.444092,349.161163 566.840576,350.616913 
	C564.840515,351.735199 564.080261,355.350128 563.152161,357.989655 
	C562.684082,359.321014 562.617432,361.145813 563.160706,362.406250 
	C564.243652,364.918457 565.329041,368.103455 567.408691,369.349152 
	C570.295715,371.078491 573.875610,370.475555 576.202576,367.201874 
	C576.946899,366.154755 577.766968,365.161499 578.719910,363.926453 
	C580.575012,365.122437 582.197632,366.168579 583.740234,367.163116 
	C581.238159,375.787323 573.015137,379.632660 564.203918,376.574341 
	C555.265442,373.471832 551.391541,361.741058 555.855713,351.294830 
	C559.412415,342.972168 569.129883,339.919983 578.261230,344.572876 
z"/>
<path fill="#2D2D2D" opacity="1.000000" stroke="none" 
	d="
M596.106384,369.955933 
	C599.263306,369.972595 602.420166,369.985413 605.577087,370.006805 
	C611.429016,370.046509 611.559021,370.220917 610.268982,376.997528 
	C603.800232,376.997528 597.195007,377.126373 590.606750,376.850555 
	C589.680237,376.811798 588.096375,374.810211 588.071228,373.689026 
	C587.866394,364.554779 587.849792,355.410767 588.105469,346.278931 
	C588.136719,345.163330 590.061829,343.235657 591.202148,343.164032 
	C596.498291,342.831451 601.827332,343.043121 607.144287,343.012695 
	C609.857361,342.997162 611.538879,344.362366 610.797607,346.932434 
	C610.428589,348.211914 608.450806,349.598511 607.001160,349.869659 
	C604.431213,350.350342 601.660339,349.726501 599.073303,350.160095 
	C597.953857,350.347748 596.319031,352.011353 596.314514,353.010834 
	C596.310059,353.993744 597.921753,355.501190 599.098755,355.848694 
	C600.783508,356.346039 602.720886,355.934784 604.544861,356.023773 
	C609.207642,356.251129 610.070862,358.117706 607.252319,362.531036 
	C603.298767,361.876251 599.819641,361.185638 596.400513,361.409729 
	C595.503235,361.468567 594.262085,364.332458 594.168335,365.964966 
	C594.097717,367.194153 592.241089,370.290771 596.106384,369.955933 
z"/>
<path fill="#2E2E2E" opacity="1.000000" stroke="none" 
	d="
M507.876617,347.095764 
	C508.236084,345.497528 508.723297,343.235779 509.156982,343.245972 
	C511.661926,343.304993 514.865234,341.601959 516.064941,345.871338 
	C517.876709,352.318909 520.102722,358.650116 522.434753,365.908905 
	C524.709839,359.172943 527.218750,353.520752 528.448669,347.602753 
	C529.674377,341.704620 533.119324,342.889343 537.689392,343.537781 
	C536.790405,346.777222 536.099792,349.731140 535.148926,352.598785 
	C532.911499,359.346375 530.287415,365.978790 528.362671,372.810760 
	C527.548340,375.701324 526.636658,377.191315 523.498352,377.058502 
	C520.323853,376.924072 517.466919,377.351562 516.247620,372.975922 
	C513.851624,364.377533 510.774780,355.968811 507.876617,347.095764 
z"/>
<path fill="#2E2E2E" opacity="1.000000" stroke="none" 
	d="
M804.068481,289.011871 
	C808.877502,289.013275 813.198486,289.100616 817.514038,288.983337 
	C820.089233,288.913391 821.048523,289.941498 821.030090,292.499664 
	C821.012024,295.000031 820.145203,296.423401 817.547974,295.993256 
	C812.529724,295.162079 811.758362,297.785004 811.979553,301.994812 
	C812.258118,307.295013 811.997009,312.621796 812.050293,317.936310 
	C812.078369,320.741333 812.243286,323.078064 808.094299,323.112061 
	C804.102661,323.144806 803.880371,321.147522 803.946960,318.154755 
	C804.061462,313.008179 803.683960,307.836639 804.048035,302.713623 
	C804.396912,297.803558 803.296143,295.244629 797.669128,295.904541 
	C794.478027,296.278778 792.763428,293.376312 794.372925,290.813873 
	C794.945007,289.903137 796.446960,289.271820 797.609497,289.105011 
	C799.563232,288.824585 801.585083,289.017761 804.068481,289.011871 
z"/>
<path fill="#DBDEE3" opacity="1.000000" stroke="none" 
	d="
M396.890533,497.527771 
	C396.212585,496.447723 395.077698,494.905151 395.075531,493.361023 
	C394.985718,429.061615 394.994110,364.762054 395.019531,300.462524 
	C395.020020,299.162048 395.367371,297.861664 395.839325,296.250610 
	C396.412994,297.468414 396.950745,298.996765 396.951508,300.525391 
	C396.984863,366.038422 396.970490,431.551453 396.890533,497.527771 
z"/>
<path fill="#2D2D2D" opacity="1.000000" stroke="none" 
	d="
M453.911835,316.868652 
	C453.929596,308.902679 454.029724,301.417267 453.917236,293.934998 
	C453.868622,290.700806 454.779816,289.020050 458.388214,288.947510 
	C462.344513,288.867920 462.027557,291.330200 462.016876,293.887878 
	C461.993225,299.542664 462.263214,305.213104 461.922424,310.847443 
	C461.661499,315.161774 463.368317,316.496765 467.379608,316.050537 
	C469.350159,315.831360 471.530792,315.557007 473.311127,316.179932 
	C474.763580,316.688171 476.402222,318.307648 476.822906,319.762665 
	C477.583618,322.393860 475.635773,323.069183 473.275879,323.030823 
	C468.620209,322.955139 463.937012,322.713379 459.312500,323.102386 
	C454.683899,323.491760 453.309631,321.522888 453.911835,316.868652 
z"/>
<path fill="#303030" opacity="1.000000" stroke="none" 
	d="
M448.012085,423.940613 
	C446.582428,426.994019 445.489990,429.815521 443.927582,432.346954 
	C443.217651,433.497162 441.577057,434.072937 440.358643,434.909302 
	C439.569458,433.638275 438.368225,432.454681 438.076294,431.078186 
	C437.453064,428.139740 437.300995,425.101379 436.814362,420.874359 
	C434.595673,425.511719 433.099579,428.993073 431.261902,432.283722 
	C430.635071,433.406128 428.745575,434.979675 428.141174,434.717041 
	C426.891449,434.174103 425.447174,432.630341 425.266571,431.333374 
	C424.584747,426.437134 424.245880,421.478943 424.092743,416.534210 
	C424.058472,415.426331 425.296204,414.279083 425.948364,413.149994 
	C426.916992,414.121521 428.615570,415.020355 428.720856,416.077820 
	C429.072662,419.612000 428.854218,423.202881 429.677277,426.876709 
	C431.534241,423.071991 433.262024,419.194824 435.329163,415.507965 
	C435.926025,414.443390 437.498352,413.925751 438.623474,413.157379 
	C439.414124,414.422028 440.601685,415.597534 440.910187,416.970520 
	C441.494110,419.569397 441.573364,422.281677 441.881104,425.119843 
	C446.628876,422.064850 444.924164,414.521881 450.623779,413.086945 
	C451.106323,413.418427 451.588898,413.749939 452.071442,414.081451 
	C450.766785,417.251068 449.462158,420.420685 448.012085,423.940613 
z"/>
<path fill="#353535" opacity="1.000000" stroke="none" 
	d="
M702.073242,427.273010 
	C702.904114,424.626648 704.040588,422.161530 700.626038,421.198700 
	C697.452515,420.303802 696.120911,422.267181 695.552673,425.065948 
	C695.060669,427.489471 694.766724,430.002991 693.874023,432.275940 
	C693.370300,433.558441 691.833984,434.435364 690.762756,435.494995 
	C690.257385,435.151367 689.752014,434.807739 689.246582,434.464111 
	C690.204285,429.369598 691.120056,424.266479 692.168091,419.190613 
	C692.313110,418.488251 693.120972,417.369476 693.606506,417.377533 
	C697.814941,417.447266 702.019897,417.730743 708.259888,418.056915 
	C712.352783,415.639191 717.033325,415.846954 717.961365,420.595245 
	C718.786560,424.817810 717.275146,429.513977 716.629028,433.977112 
	C716.573364,434.361450 714.870850,434.998901 714.625732,434.771729 
	C713.900635,434.099731 713.049622,433.029663 713.092834,432.157135 
	C713.261597,428.746368 713.755981,425.351715 714.158936,421.681946 
	C709.884338,420.495911 707.562195,421.423462 707.006653,425.562256 
	C706.721802,427.684570 706.639038,429.903046 705.907776,431.870941 
	C705.455627,433.087433 703.955627,433.914459 702.926025,434.916321 
	C702.426636,433.642822 701.694092,432.403534 701.500610,431.085144 
	C701.341431,430.000580 701.822021,428.822144 702.073242,427.273010 
z"/>
<path fill="#2C2C2C" opacity="1.000000" stroke="none" 
	d="
M540.997986,373.682129 
	C540.975037,364.746704 541.048523,356.276520 540.916016,347.809570 
	C540.864014,344.489746 541.978088,342.965332 545.493164,342.942474 
	C549.019836,342.919586 549.025330,344.996826 549.014282,347.502411 
	C548.972046,357.095795 548.997192,366.689453 548.997192,376.748108 
	C545.744141,376.340729 542.217529,379.303864 540.997986,373.682129 
z"/>
<path fill="#313131" opacity="1.000000" stroke="none" 
	d="
M500.606628,421.709869 
	C503.482422,417.164948 507.348846,416.060730 511.888794,417.513397 
	C515.511230,418.672424 516.203308,421.765167 515.935974,425.128052 
	C515.548950,429.997406 513.293579,433.701050 508.379639,434.843903 
	C504.661652,435.708679 500.463135,435.221039 499.295288,431.040710 
	C498.542816,428.347260 499.949097,425.050751 500.606628,421.709869 
z"/>
<path fill="#353535" opacity="1.000000" stroke="none" 
	d="
M542.016846,430.980621 
	C538.658203,432.309998 535.363464,434.515045 531.926086,434.766296 
	C526.589355,435.156281 523.552246,429.726135 525.626831,424.713135 
	C528.878235,416.856506 536.327881,414.220551 540.886658,419.615875 
	C542.299011,421.287445 542.273621,424.283020 542.602356,426.713562 
	C542.758972,427.872040 542.203369,429.126892 541.984863,430.669159 
	C541.999207,431.000214 542.016846,430.980621 542.016846,430.980621 
z"/>
<path fill="#353535" opacity="1.000000" stroke="none" 
	d="
M663.036499,429.637390 
	C663.102600,422.256500 665.917358,417.804230 670.735779,417.024902 
	C675.230652,416.297943 679.302490,418.373230 679.943359,421.717743 
	C681.149658,428.013123 677.727722,434.188293 672.402527,434.863800 
	C668.330811,435.380280 664.236328,435.393402 663.036499,429.637390 
z"/>
<path fill="#353535" opacity="1.000000" stroke="none" 
	d="
M740.699951,420.793518 
	C745.564636,416.368164 750.087708,415.713043 753.237610,418.742340 
	C756.987915,422.349030 756.728027,427.196564 752.528931,431.963013 
	C749.576294,435.314575 743.557739,436.113159 740.349609,433.579102 
	C737.130371,431.036285 737.163452,425.789673 740.699951,420.793518 
z"/>
<path fill="#353535" opacity="1.000000" stroke="none" 
	d="
M721.945068,421.108765 
	C723.977356,419.510925 725.713501,417.612701 727.758606,417.182251 
	C731.238464,416.449799 734.906189,417.010742 736.670898,420.779541 
	C738.546021,424.783875 736.066467,431.577301 732.217102,433.853729 
	C728.927307,435.799133 722.313232,435.527679 721.455933,432.607971 
	C720.460999,429.219421 721.584106,425.209045 721.945068,421.108765 
z"/>
<path fill="#353535" opacity="1.000000" stroke="none" 
	d="
M584.274231,417.041992 
	C589.672241,416.558350 592.012939,419.512482 592.916626,423.811859 
	C593.619568,427.156494 589.348938,433.929413 586.024597,434.738586 
	C581.887817,435.745483 578.085754,435.072479 575.670715,431.017303 
	C572.999878,426.532532 577.240906,419.335175 584.274231,417.041992 
z"/>
<path fill="#353535" opacity="1.000000" stroke="none" 
	d="
M623.678345,430.493530 
	C621.512878,432.198425 619.680969,434.216034 617.474915,434.786377 
	C612.544495,436.061188 608.609436,433.503143 608.027893,429.357147 
	C607.246643,423.787048 611.742188,417.680908 617.084595,417.055817 
	C623.442505,416.311890 627.370239,421.504517 624.901855,427.379364 
	C624.519104,428.290344 624.193909,429.225525 623.678345,430.493530 
z"/>
<path fill="#303030" opacity="1.000000" stroke="none" 
	d="
M458.196533,468.996826 
	C456.495392,474.714722 451.807068,477.279175 446.560455,475.708496 
	C442.515228,474.497467 440.965759,471.069031 442.169769,465.993622 
	C443.436157,460.655548 449.227570,456.894684 454.173950,458.198364 
	C458.749786,459.404419 459.764587,461.968842 458.196533,468.996826 
z"/>
<path fill="#313131" opacity="1.000000" stroke="none" 
	d="
M497.848724,467.141632 
	C496.882507,470.874054 495.691711,474.409973 491.986786,475.195343 
	C489.303619,475.764099 485.594330,475.866913 483.679260,474.414764 
	C481.878387,473.049164 481.183807,469.381622 481.149689,466.712189 
	C481.087128,461.818390 486.157990,457.769043 491.150482,458.021271 
	C496.278229,458.280273 497.864502,460.331116 497.848724,467.141632 
z"/>
<path fill="#2F2F2F" opacity="1.000000" stroke="none" 
	d="
M476.128174,434.981018 
	C471.384094,434.480957 469.238647,431.619843 469.132843,427.679413 
	C468.995667,422.569458 473.396820,417.725433 477.902191,417.031677 
	C482.176910,416.373444 484.926636,418.253387 486.476715,422.049164 
	C488.673767,427.429260 483.482300,434.123169 476.128174,434.981018 
z"/>
<path fill="#313131" opacity="1.000000" stroke="none" 
	d="
M422.278625,471.368652 
	C423.164581,467.254089 423.868530,463.540375 424.667328,459.847198 
	C424.795441,459.254791 425.347534,458.754059 425.437317,458.617126 
	C428.252289,458.412689 430.659271,458.254944 433.063171,458.059631 
	C438.139679,457.647156 440.875427,460.121887 440.975800,465.242096 
	C441.126282,472.919098 434.158875,477.630463 426.727173,474.873901 
	C425.575470,478.003052 424.427765,481.132538 423.280060,484.262054 
	C422.464478,484.042480 421.648895,483.822876 420.833313,483.603302 
	C421.264893,479.660950 421.696472,475.718628 422.278625,471.368652 
M428.102356,470.469025 
	C431.570740,473.318085 434.558075,472.438629 435.923401,468.556305 
	C436.542633,466.795502 435.864899,463.397247 434.528870,462.381317 
	C431.918335,460.396332 428.675262,462.781403 427.551636,467.049500 
	C427.320801,467.926300 427.581909,468.932587 428.102356,470.469025 
z"/>
<path fill="#303030" opacity="1.000000" stroke="none" 
	d="
M474.696716,455.539032 
	C475.511566,454.494354 476.065643,453.314575 476.827942,453.159790 
	C478.391876,452.842133 480.067413,453.073853 481.697021,453.079407 
	C480.982452,454.457336 480.267914,455.835297 479.553406,457.213257 
	C479.812439,457.280426 480.071503,457.347565 480.330566,457.414734 
	C479.836060,459.019257 479.354919,460.628052 478.844208,462.227417 
	C477.928375,465.095398 476.819305,467.916077 476.126740,470.836182 
	C475.615814,472.990387 476.463043,476.045258 472.910828,475.637054 
	C472.386627,475.576813 472.092499,472.020325 472.018219,470.069031 
	C471.969543,468.790222 472.756989,467.480988 472.715271,466.200165 
	C472.671997,464.871735 472.080475,463.561188 471.728699,462.242798 
	C470.116760,462.774445 467.805298,462.832794 467.052246,463.945648 
	C465.835571,465.743744 465.743164,468.270111 464.990723,470.424225 
	C464.294830,472.416473 463.355743,474.323761 462.523743,476.268463 
	C461.899872,476.131927 461.275970,475.995422 460.652100,475.858887 
	C460.501465,474.078613 460.056793,472.263123 460.264771,470.525757 
	C460.635132,467.432068 461.552368,464.405334 461.952820,461.313293 
	C462.278900,458.795319 463.242737,458.201874 465.862427,458.215210 
	C468.796967,458.230133 472.565430,459.904114 474.696716,455.539032 
z"/>
<path fill="#303030" opacity="1.000000" stroke="none" 
	d="
M450.674408,431.429382 
	C451.650238,426.176758 452.305878,421.267181 453.421631,416.464508 
	C453.788483,414.885254 455.346710,413.582764 456.360168,412.153687 
	C457.060181,413.765900 457.760223,415.378113 458.265015,416.540680 
	C460.916840,417.331116 464.735443,417.347168 466.178253,419.206635 
	C467.700928,421.169037 467.018433,424.886566 467.178070,427.843872 
	C467.257874,429.322388 467.438232,430.975403 466.886871,432.253448 
	C466.411072,433.356201 464.963531,434.039673 463.945557,434.908447 
	C463.359344,433.777405 462.284302,432.642761 462.292542,431.516052 
	C462.307861,429.416504 463.245575,427.319672 463.231842,425.225433 
	C463.222992,423.878021 462.201202,422.537292 461.633423,421.193604 
	C460.015686,421.971924 457.529694,422.356384 456.960754,423.610535 
	C455.771149,426.232697 455.794708,429.378418 454.898254,432.173859 
	C454.544159,433.278137 453.066010,434.021942 452.099670,434.929810 
	C451.577545,433.891235 451.055481,432.852631 450.674408,431.429382 
z"/>
<path fill="#353535" opacity="1.000000" stroke="none" 
	d="
M551.931946,468.428986 
	C549.336548,471.205414 547.147278,474.586761 544.118042,475.717041 
	C539.408325,477.474396 534.807190,474.097656 534.052979,469.597260 
	C533.254150,464.830048 537.899963,458.736664 542.858887,458.047546 
	C549.519897,457.121887 552.014343,459.855957 551.931946,468.428986 
M541.485718,462.833618 
	C540.665833,464.520477 539.332336,466.149597 539.134949,467.906372 
	C538.745972,471.368164 541.944763,473.560486 544.435852,471.416840 
	C546.255371,469.851074 546.770020,466.768951 547.866394,464.362762 
	C545.970947,463.720184 544.075500,463.077637 541.485718,462.833618 
z"/>
<path fill="#353535" opacity="1.000000" stroke="none" 
	d="
M554.015015,468.105164 
	C554.210693,467.038544 554.413574,466.407990 554.560852,465.764679 
	C556.215088,458.541626 558.518799,456.739349 565.938599,458.215393 
	C567.817993,458.589264 570.510315,461.260590 570.592468,462.982941 
	C570.774841,466.807892 569.627258,470.719177 568.791626,474.545013 
	C568.666443,475.117828 566.832092,475.955048 566.590515,475.745453 
	C565.855713,475.107849 565.054932,473.994293 565.099976,473.107666 
	C565.272400,469.711426 565.765808,466.331451 566.168701,462.679626 
	C562.180725,461.486450 559.818604,462.223480 559.026489,466.021973 
	C558.590820,468.111115 558.632629,470.351410 557.889648,472.307220 
	C557.367249,473.682526 555.885071,474.693237 554.831482,475.866730 
	C554.377441,474.560791 553.714294,473.282745 553.534973,471.940094 
	C553.388672,470.845245 553.820740,469.673126 554.015015,468.105164 
z"/>
<path fill="#353535" opacity="1.000000" stroke="none" 
	d="
M633.929443,421.772949 
	C632.742493,425.134460 632.071350,428.317169 630.922180,431.316650 
	C630.391846,432.700745 628.927124,433.726776 627.885986,434.915161 
	C627.318481,433.451782 626.186218,431.943970 626.297241,430.534088 
	C626.553833,427.277008 627.361389,424.056366 628.046326,420.842468 
	C628.502014,418.704498 628.856934,416.456024 632.154236,417.398804 
	C633.304932,417.727783 634.702393,417.149048 635.991943,417.044769 
	C642.041321,416.555725 644.940125,419.965088 643.615051,425.965454 
	C643.119751,428.208557 642.876709,430.537384 642.098267,432.673950 
	C641.765625,433.586853 640.357727,434.107941 639.438477,434.807068 
	C638.961975,433.865570 638.066956,432.912964 638.091614,431.984802 
	C638.152527,429.691681 638.683411,427.415131 638.937073,425.122131 
	C639.348755,421.400391 637.756653,420.190765 633.929443,421.772949 
z"/>
<path fill="#313131" opacity="1.000000" stroke="none" 
	d="
M565.009033,430.926544 
	C566.708435,430.359711 567.968384,429.609558 569.331299,429.215149 
	C570.708557,428.816589 572.187744,428.770508 574.777527,428.408691 
	C569.792358,434.723541 565.533997,436.621582 561.630615,434.605072 
	C558.519470,432.997925 556.814331,430.276733 557.615234,426.484619 
	C558.955078,420.140839 561.992737,417.131531 567.219421,417.018768 
	C571.330200,416.930145 574.282227,418.286713 575.025208,423.978027 
	C573.103027,423.541565 570.996887,423.703979 570.274841,422.782227 
	C567.872925,419.716034 565.125549,420.631348 563.664368,422.730133 
	C561.971741,425.161499 559.787598,428.739075 565.009033,430.926544 
z"/>
<path fill="#353535" opacity="1.000000" stroke="none" 
	d="
M649.351074,419.172241 
	C655.021545,415.977814 659.613342,416.400238 661.392029,420.160278 
	C661.808716,421.041138 661.672974,422.410370 661.277649,423.335266 
	C661.122253,423.698822 659.083984,423.863281 658.715210,423.428986 
	C656.730164,421.090912 654.037354,419.678711 651.974731,422.019257 
	C650.310547,423.907562 650.238892,427.199249 649.460754,429.868347 
	C649.916870,430.303528 650.372925,430.738739 650.829041,431.173950 
	C654.015625,430.119354 657.202148,429.064789 660.966370,427.819031 
	C660.390381,432.512207 657.806824,434.567261 654.671936,434.740784 
	C651.962036,434.890808 647.885925,434.251465 646.722168,432.460815 
	C645.230774,430.166138 645.714478,426.334503 646.031433,423.235077 
	C646.170166,421.877686 648.003052,420.693451 649.351074,419.172241 
z"/>
<path fill="#353535" opacity="1.000000" stroke="none" 
	d="
M767.983765,421.017303 
	C770.154114,417.820557 773.257996,416.036346 776.890198,417.357330 
	C778.623596,417.987701 779.693665,420.513550 780.966614,422.252289 
	C781.135376,422.482849 780.726135,423.136627 780.468018,423.971710 
	C777.973145,422.979858 775.595398,422.034607 773.217712,421.089325 
	C772.984192,421.549164 772.750671,422.009033 772.517151,422.468872 
	C774.635803,425.866943 783.319031,425.083008 779.265930,432.357300 
	C777.215820,436.036652 773.563721,435.298187 770.357666,434.583862 
	C767.119507,433.862396 766.345703,431.500061 767.592041,428.086029 
	C770.123047,429.143219 772.583801,430.171112 775.780151,431.506256 
	C772.662964,427.597565 770.334229,424.677490 767.999573,421.375366 
	C767.993652,420.993317 767.983765,421.017303 767.983765,421.017303 
z"/>
<path fill="#2F2F2F" opacity="1.000000" stroke="none" 
	d="
M510.343689,462.497986 
	C505.593048,462.276001 503.072296,464.488800 503.136383,468.622192 
	C503.151672,469.608765 503.879089,471.281647 504.535004,471.419342 
	C506.012939,471.729614 507.736206,471.539825 509.201569,471.065338 
	C510.883240,470.520813 512.394043,469.448669 514.510742,468.322968 
	C514.086487,473.615479 511.255920,475.954468 506.600159,476.005737 
	C502.366180,476.052368 499.652130,474.356140 499.024689,469.897675 
	C498.353638,465.129639 500.624207,461.489471 504.429626,459.610474 
	C506.861115,458.409882 510.337769,458.877258 513.238403,459.312653 
	C514.290405,459.470551 515.148682,461.650238 515.826843,463.038605 
	C515.990845,463.374451 514.854309,464.813965 514.714355,464.757538 
	C513.316772,464.193909 512.002625,463.423279 510.343689,462.497986 
z"/>
<path fill="#353535" opacity="1.000000" stroke="none" 
	d="
M541.989624,431.009399 
	C546.030029,429.553497 548.459290,427.411987 546.085022,422.656860 
	C545.349548,421.183899 545.398865,419.319031 545.088867,417.633606 
	C545.542542,417.324646 545.996155,417.015686 546.449829,416.706726 
	C548.010986,418.225800 549.572205,419.744843 551.504333,421.624908 
	C553.757019,421.294098 553.957092,414.959198 559.073975,418.416077 
	C553.796387,422.820099 551.459900,427.876129 556.326782,433.858612 
	C551.960205,435.160675 551.960205,435.160675 549.740845,431.007507 
	C547.533142,432.263275 545.325806,433.518860 543.118408,434.774445 
	C542.776367,433.770325 542.434326,432.766205 542.054565,431.371368 
	C542.016846,430.980621 541.999207,431.000214 541.989624,431.009399 
z"/>
<path fill="#313131" opacity="1.000000" stroke="none" 
	d="
M768.005554,420.988098 
	C766.565125,421.087799 765.112854,421.192719 763.325195,421.321838 
	C763.521301,425.164429 759.588867,429.073303 764.714722,432.092865 
	C764.146240,433.049316 763.771912,434.598175 762.975525,434.859192 
	C759.603516,435.964172 756.813293,433.379761 756.970825,429.721405 
	C757.118042,426.304321 756.553345,422.747406 757.337708,419.502441 
	C757.934570,417.033264 760.154297,414.956360 762.049500,412.107422 
	C764.389160,415.365723 766.144226,417.809906 767.941528,420.635681 
	C767.983765,421.017303 767.993652,420.993317 768.005554,420.988098 
z"/>
<path fill="#313131" opacity="1.000000" stroke="none" 
	d="
M517.971558,469.141296 
	C517.723816,466.092438 516.785034,463.294922 517.415466,460.912720 
	C518.061157,458.473022 520.243652,456.440033 521.753540,454.229065 
	C522.769470,455.309631 523.736328,456.442261 524.814941,457.456055 
	C525.886536,458.463257 527.070374,459.350983 528.944763,460.904144 
	C526.345520,461.728333 524.861084,462.199036 523.165100,462.736847 
	C523.696411,466.621277 519.352112,471.319672 526.368286,473.677673 
	C526.214355,474.141357 526.060364,474.605042 525.906372,475.068726 
	C523.907898,475.303802 521.168945,476.436615 520.094910,475.550812 
	C518.695496,474.396576 518.616577,471.641266 517.971558,469.141296 
z"/>
<path fill="#353535" opacity="1.000000" stroke="none" 
	d="
M600.345459,412.081604 
	C599.654785,419.536133 598.814453,426.692139 597.616333,433.787720 
	C597.512390,434.403198 595.048218,434.620148 592.968384,435.231506 
	C594.275513,427.784943 595.252991,421.312225 596.667236,414.936401 
	C596.944214,413.687531 598.912476,412.813782 600.345459,412.081604 
z"/>
<path fill="#353535" opacity="1.000000" stroke="none" 
	d="
M604.077759,413.448975 
	C605.152893,412.447205 606.171753,411.841156 607.190552,411.235138 
	C607.562317,412.241669 608.377625,413.316986 608.233948,414.243591 
	C607.300537,420.262878 606.236450,426.265839 605.007935,432.231476 
	C604.804993,433.216919 603.583191,433.992554 602.832214,434.865173 
	C602.221619,433.705444 600.966187,432.459747 601.107422,431.400299 
	C601.891174,425.523407 603.014465,419.691803 604.077759,413.448975 
z"/>
<path fill="#2F2F2F" opacity="1.000000" stroke="none" 
	d="
M488.133575,429.053467 
	C488.417175,428.012146 488.743774,427.401428 488.834717,426.757416 
	C490.019287,418.367706 490.010925,418.366516 498.650024,417.280304 
	C498.537262,418.406677 498.663086,420.204529 498.301178,420.308777 
	C492.406281,422.006409 493.003113,427.228821 492.036987,431.559296 
	C491.316589,434.788513 491.392242,434.805389 487.157806,434.210114 
	C487.462555,432.621033 487.764832,431.044800 488.133575,429.053467 
z"/>
<path fill="#353535" opacity="1.000000" stroke="none" 
	d="
M528.592285,465.574341 
	C529.759216,462.854889 531.337952,458.420807 531.654724,458.509186 
	C536.063171,459.739227 533.129089,462.924408 532.992676,465.367859 
	C532.846863,467.980652 532.622925,470.664825 531.846130,473.133148 
	C531.484497,474.282166 529.736450,474.994873 528.616821,475.905396 
	C528.096680,474.675903 527.111511,473.428009 527.159363,472.221039 
	C527.242676,470.121552 527.963623,468.047302 528.592285,465.574341 
z"/>
<path fill="#353535" opacity="1.000000" stroke="none" 
	d="
M692.640747,290.252136 
	C693.267212,290.974121 693.967224,292.033539 693.945984,293.078247 
	C693.749146,302.768280 693.428040,312.455811 693.067139,322.551514 
	C692.649414,321.916687 692.006104,320.872589 692.012390,319.832428 
	C692.071289,310.082184 692.241577,300.332550 692.640747,290.252136 
z"/>
<path fill="#FFFFFF" opacity="1.000000" stroke="none" 
	d="
M391.086548,426.503418 
	C391.438263,427.800018 391.948517,429.556335 391.955200,431.314606 
	C392.014587,446.919556 391.984833,462.524811 391.980713,478.603516 
	C391.653381,477.590973 391.048828,476.106049 391.042755,474.618713 
	C390.977844,458.734039 391.007721,442.848999 391.086548,426.503418 
z"/>
<path fill="#353535" opacity="1.000000" stroke="none" 
	d="
M596.083130,369.518738 
	C592.241089,370.290771 594.097717,367.194153 594.168335,365.964966 
	C594.262085,364.332458 595.503235,361.468567 596.400513,361.409729 
	C599.819641,361.185638 603.298767,361.876251 606.873779,362.600098 
	C605.374573,362.998322 603.724609,363.239929 602.145874,363.004120 
	C597.270996,362.275909 595.128174,364.089813 596.083130,369.518738 
z"/>
<path fill="#FFFFFF" opacity="1.000000" stroke="none" 
	d="
M390.583527,366.120300 
	C390.980469,376.325134 390.982025,386.730072 390.980957,397.608887 
	C390.653442,397.422211 390.045868,396.761658 390.045898,396.101135 
	C390.046265,386.174225 390.126587,376.247345 390.583527,366.120300 
z"/>
<path fill="#FFFFFF" opacity="1.000000" stroke="none" 
	d="
M727.431091,321.773560 
	C727.006226,311.613647 726.994080,301.306183 726.999146,290.534790 
	C727.343201,290.698486 727.954163,291.325775 727.954773,291.953644 
	C727.964111,301.844391 727.894958,311.735229 727.431091,321.773560 
z"/>
<path fill="#398CFC" opacity="1.000000" stroke="none" 
	d="
M210.488983,407.524536 
	C207.722855,403.557312 205.172501,399.879181 202.200699,395.593262 
	C199.553116,399.398987 197.194458,402.748291 194.878387,406.126801 
	C189.418793,414.090759 184.062851,422.128143 178.453537,429.984833 
	C177.467682,431.365692 175.482071,432.812103 173.911514,432.865875 
	C165.601135,433.150421 157.275848,432.999451 147.972626,432.999451 
	C149.303986,431.001099 150.199493,429.549530 151.198883,428.173431 
	C162.448868,412.682922 173.636353,397.145752 185.045288,381.773010 
	C187.220474,378.842133 187.132050,376.892670 185.005447,373.989960 
	C174.478241,359.620697 164.185471,345.079620 153.822754,330.590057 
	C152.686920,329.001862 151.632614,327.355347 149.958191,324.872406 
	C159.511597,324.872406 168.229004,324.749115 176.934677,325.013245 
	C178.156738,325.050323 179.566116,326.808319 180.473724,328.068665 
	C187.859558,338.324707 195.146500,348.651978 202.826309,359.468475 
	C203.973419,358.084412 204.944489,357.065308 205.742966,355.925323 
	C212.332108,346.517883 218.831329,337.046539 225.523361,327.713287 
	C226.446686,326.425537 228.251190,325.026276 229.692230,324.976898 
	C237.501663,324.709320 245.325089,324.849945 254.033157,324.849945 
	C253.006180,326.575592 252.398270,327.798676 251.609818,328.891541 
	C240.895187,343.743134 230.233887,358.634583 219.352295,373.363190 
	C217.312408,376.124268 217.287415,377.906372 219.335205,380.686249 
	C231.282715,396.904877 243.014526,413.282471 254.810974,429.612274 
	C255.383331,430.404541 255.878464,431.252625 256.973419,432.947510 
	C247.266251,432.947510 238.243240,433.046661 229.228683,432.815765 
	C228.161087,432.788422 226.946243,431.091614 226.128433,429.935974 
	C220.935760,422.598297 215.835510,415.195160 210.488983,407.524536 
z"/>
<path fill="#398DFE" opacity="1.000000" stroke="none" 
	d="
M267.039673,405.000000 
	C267.039673,378.209930 267.039673,351.919861 267.039673,325.233948 
	C275.439270,325.233948 283.467804,325.233948 292.057739,325.233948 
	C292.057739,354.288300 292.057739,383.174927 292.057739,412.664032 
	C296.386475,412.664032 300.173126,412.664062 303.959747,412.664062 
	C316.119263,412.664093 328.286041,412.907379 340.434814,412.546356 
	C345.413330,412.398376 346.782745,414.082397 346.382355,418.762939 
	C346.001160,423.219513 346.300293,427.734253 346.300293,432.608887 
	C319.945862,432.608887 293.885254,432.608887 267.039642,432.608887 
	C267.039642,423.668640 267.039642,414.584320 267.039673,405.000000 
z"/>
<path fill="#4EA3FE" opacity="1.000000" stroke="none" 
	d="
M270.000000,488.157410 
	C227.203674,488.157471 184.907333,488.157471 142.286285,488.157471 
	C142.286285,484.707153 142.286285,481.642181 142.286285,478.287262 
	C212.314621,478.287262 282.242981,478.287262 352.581421,478.287262 
	C352.581421,481.232025 352.581421,484.283997 352.581421,488.157379 
	C325.323547,488.157379 297.911774,488.157379 270.000000,488.157410 
z"/>
<path fill="#E8EDF0" opacity="1.000000" stroke="none" 
	d="
M392.983826,359.000000 
	C392.983795,331.219757 392.983795,303.939514 392.983795,276.659241 
	C393.202850,276.659058 393.421936,276.658875 393.640991,276.658691 
	C393.640991,327.951538 393.640991,379.244385 393.640991,430.537262 
	C393.421936,430.538910 393.202881,430.540588 392.983826,430.542236 
	C392.983826,406.861481 392.983826,383.180756 392.983826,359.000000 
z"/>
<path fill="#000000" opacity="1.000000" stroke="none" 
	d="
M489.139587,354.732178 
	C488.634125,347.877655 493.152924,350.636292 497.593445,350.053467 
	C496.502045,352.733307 496.217102,355.455109 494.901978,356.110840 
	C493.500336,356.809723 491.124420,355.554779 489.139587,354.732178 
z"/>
<path fill="#000000" opacity="1.000000" stroke="none" 
	d="
M545.952454,307.874359 
	C544.788696,307.905731 543.985413,307.905731 542.647949,307.905731 
	C543.591187,304.690979 544.419128,301.869385 545.247009,299.047791 
	C545.602295,299.071930 545.957581,299.096069 546.312866,299.120239 
	C546.312866,302.027802 546.312866,304.935394 545.952454,307.874359 
z"/>
<path fill="#000000" opacity="1.000000" stroke="none" 
	d="
M610.682800,303.615906 
	C611.315002,301.909302 611.810425,300.535370 612.497864,298.628815 
	C613.406311,301.695404 614.160461,304.241058 615.105225,307.430145 
	C613.226013,307.658905 611.735718,307.840302 609.710815,308.086761 
	C610.059021,306.361267 610.302490,305.154938 610.682800,303.615906 
z"/>
<path fill="#000000" opacity="1.000000" stroke="none" 
	d="
M427.859314,470.174103 
	C427.581909,468.932587 427.320801,467.926300 427.551636,467.049500 
	C428.675262,462.781403 431.918335,460.396332 434.528870,462.381317 
	C435.864899,463.397247 436.542633,466.795502 435.923401,468.556305 
	C434.558075,472.438629 431.570740,473.318085 427.859314,470.174103 
z"/>
<path fill="#000000" opacity="1.000000" stroke="none" 
	d="
M541.832886,462.634338 
	C544.075500,463.077637 545.970947,463.720184 547.866394,464.362762 
	C546.770020,466.768951 546.255371,469.851074 544.435852,471.416840 
	C541.944763,473.560486 538.745972,471.368164 539.134949,467.906372 
	C539.332336,466.149597 540.665833,464.520477 541.832886,462.634338 
z"/>
</svg>