<svg width="419" height="439" viewBox="0 0 419 439" fill="none" xmlns="http://www.w3.org/2000/svg">
<g clip-path="url(#clip0_1_2)">
<rect width="419" height="439" fill="none"/>
<path d="M-0.00263149 127.348L52.8266 93.2684L295.129 400.253L242.5 435L-0.00263149 127.348Z" fill="url(#paint0_linear_1_2)"/>
<rect x="242" y="434.794" width="58.7941" height="176.382" transform="rotate(-90 242 434.794)" fill="url(#paint1_linear_1_2)"/>
<rect x="242" y="103" width="60" height="331" fill="url(#paint2_linear_1_2)"/>
<rect width="62.8616" height="412.997" transform="matrix(0.840353 0.542039 -0.619517 0.784983 255.859 76.0399)" fill="url(#paint3_linear_1_2)"/>
<path d="M330.277 34.5202L318.881 129.868L234.249 75.2738L330.277 34.5202Z" fill="url(#paint4_linear_1_2)"/>
</g>
<defs>
<linearGradient id="paint0_linear_1_2" x1="26.412" y1="110.308" x2="237.452" y2="437.459" gradientUnits="userSpaceOnUse">
<stop stop-color="#134DA3"/>
<stop offset="1" stop-color="#071D3D"/>
</linearGradient>
<linearGradient id="paint1_linear_1_2" x1="271.397" y1="611.177" x2="271.397" y2="434.794" gradientUnits="userSpaceOnUse">
<stop stop-color="#134DA3"/>
<stop offset="1" stop-color="#071D3D"/>
</linearGradient>
<linearGradient id="paint2_linear_1_2" x1="272" y1="103" x2="272" y2="434" gradientUnits="userSpaceOnUse">
<stop stop-color="#134DA3"/>
<stop offset="1" stop-color="#071D3D"/>
</linearGradient>
<linearGradient id="paint3_linear_1_2" x1="25.5575" y1="11.4544" x2="29.8171" y2="413.014" gradientUnits="userSpaceOnUse">
<stop stop-color="#4E8FE6"/>
<stop offset="0.5" stop-color="#12376A"/>
<stop offset="1" stop-color="#071D3D"/>
</linearGradient>
<linearGradient id="paint4_linear_1_2" x1="270.636" y1="103.466" x2="322.707" y2="30.8754" gradientUnits="userSpaceOnUse">
<stop stop-color="#4E8FE6"/>
<stop offset="0.5" stop-color="#A7C7F3"/>
<stop offset="1" stop-color="white"/>
</linearGradient>
<clipPath id="clip0_1_2">
<rect width="419" height="439" fill="white"/>
</clipPath>
</defs>
</svg>
