<svg width="325" height="172" viewBox="0 0 325 172" fill="none" xmlns="http://www.w3.org/2000/svg">
<rect width="324.484" height="172" fill="none"/>
<path d="M112.23 92L118.041 83.7775L112.345 75.9226H116.088L119.809 81.2511L123.507 75.9226H127.251L121.555 83.7546L127.365 92H123.576L119.809 86.3499L116.019 92H112.23ZM129.334 92V75.9226H132.481V89.129H139.555V92H129.334ZM147.143 92V75.9226H150.565L155.251 82.8588L159.936 75.9226H163.335V92H160.212V80.8377L155.251 88.1414L150.29 80.8606V92H147.143ZM165.274 92L171.613 75.9226H174.967L181.306 92H177.975L176.597 88.463H169.983L168.605 92H165.274ZM171.016 85.6839H175.564L173.29 79.8501L171.016 85.6839ZM183.232 92V75.9226H186.516L194.371 86.7174V75.9226H197.495V92H194.371L186.379 80.9985V92H183.232ZM199.434 92L205.773 75.9226H209.127L215.466 92H212.135L210.757 88.463H204.143L202.765 92H199.434ZM205.176 85.6839H209.724L207.45 79.8501L205.176 85.6839ZM224.004 92.2756C222.366 92.2756 220.911 91.9234 219.64 91.2191C218.385 90.4994 217.397 89.5195 216.677 88.2792C215.958 87.0237 215.598 85.5843 215.598 83.9613C215.598 82.3382 215.958 80.9066 216.677 79.6663C217.397 78.4108 218.385 77.4308 219.64 76.7265C220.911 76.0068 222.366 75.647 224.004 75.647C224.984 75.647 225.888 75.7924 226.714 76.0834C227.541 76.3743 228.269 76.78 228.896 77.3006C229.539 77.8059 230.075 78.3878 230.504 79.0462L227.932 80.6539C227.671 80.2405 227.327 79.873 226.898 79.5515C226.485 79.2299 226.025 78.9773 225.52 78.7935C225.015 78.6098 224.509 78.5179 224.004 78.5179C222.994 78.5179 222.098 78.7553 221.317 79.2299C220.536 79.6893 219.924 80.3247 219.48 81.1363C219.035 81.9478 218.813 82.8895 218.813 83.9613C218.813 85.0178 219.028 85.9595 219.457 86.7863C219.901 87.6132 220.521 88.2639 221.317 88.7386C222.113 89.1979 223.032 89.4276 224.073 89.4276C224.854 89.4276 225.551 89.2822 226.163 88.9912C226.776 88.685 227.266 88.2639 227.633 87.728C228.001 87.1921 228.207 86.5643 228.253 85.8446H224.532V83.3871H231.285V85.3394C231.254 86.8093 230.925 88.0649 230.297 89.1061C229.67 90.132 228.812 90.9205 227.725 91.4717C226.638 92.0077 225.398 92.2756 224.004 92.2756ZM233.608 92V75.9226H243.783V78.7935H236.755V82.4454H242.819V85.2475H236.755V89.129H243.875V92H233.608ZM247.133 92V75.9226H250.556L255.241 82.8588L259.926 75.9226H263.326V92H260.202V80.8377L255.241 88.1414L250.28 80.8606V92H247.133ZM266.826 92V75.9226H277.001V78.7935H269.973V82.4454H276.037V85.2475H269.973V89.129H277.093V92H266.826ZM280.351 92V75.9226H283.636L291.491 86.7174V75.9226H294.614V92H291.491L283.498 80.9985V92H280.351ZM301.515 92V78.7935H296.692V75.9226H309.462V78.7935H304.661V92H301.515ZM119.143 120.276C118.331 120.276 117.574 120.176 116.869 119.977C116.165 119.778 115.537 119.502 114.986 119.15C114.435 118.783 113.975 118.377 113.608 117.933C113.256 117.489 113.026 117.022 112.919 116.532L115.996 115.613C116.195 116.134 116.548 116.585 117.053 116.968C117.558 117.336 118.194 117.527 118.959 117.542C119.771 117.558 120.429 117.382 120.934 117.014C121.455 116.647 121.715 116.172 121.715 115.59C121.715 115.085 121.509 114.664 121.095 114.327C120.697 113.975 120.146 113.707 119.442 113.523L117.351 112.972C116.571 112.773 115.882 112.474 115.284 112.076C114.687 111.663 114.22 111.157 113.883 110.56C113.546 109.963 113.378 109.266 113.378 108.47C113.378 106.954 113.876 105.775 114.871 104.933C115.882 104.076 117.306 103.647 119.143 103.647C120.169 103.647 121.065 103.8 121.83 104.106C122.611 104.397 123.262 104.818 123.782 105.37C124.303 105.921 124.701 106.572 124.977 107.322L121.922 108.263C121.738 107.743 121.401 107.299 120.911 106.931C120.422 106.564 119.801 106.38 119.051 106.38C118.286 106.38 117.681 106.556 117.237 106.908C116.808 107.261 116.594 107.758 116.594 108.401C116.594 108.907 116.762 109.305 117.099 109.596C117.451 109.887 117.926 110.109 118.523 110.262L120.636 110.79C122.014 111.127 123.086 111.732 123.851 112.604C124.617 113.477 125 114.449 125 115.521C125 116.471 124.77 117.305 124.311 118.025C123.851 118.729 123.185 119.28 122.313 119.678C121.44 120.077 120.383 120.276 119.143 120.276ZM127.697 120V103.923H137.871V106.794H130.843V110.445H136.907V113.247H130.843V117.129H137.963V120H127.697ZM141.222 120V103.923H147.193C148.326 103.923 149.329 104.145 150.202 104.589C151.075 105.033 151.756 105.645 152.246 106.426C152.736 107.192 152.981 108.087 152.981 109.113C152.981 110.17 152.698 111.104 152.131 111.915C151.565 112.712 150.822 113.316 149.903 113.73L153.624 120H150.064L146.78 114.304C146.688 114.304 146.588 114.304 146.481 114.304C146.389 114.304 146.29 114.304 146.183 114.304H144.368V120H141.222ZM144.368 111.433H147.216C147.691 111.433 148.112 111.334 148.479 111.134C148.862 110.935 149.161 110.66 149.375 110.308C149.605 109.955 149.72 109.557 149.72 109.113C149.72 108.424 149.467 107.865 148.962 107.437C148.472 107.008 147.836 106.794 147.055 106.794H144.368V111.433ZM160.871 120L154.463 103.923H157.839L162.594 116.279L167.302 103.923H170.678L164.293 120H160.871ZM172.6 120V103.923H175.747V120H172.6ZM186.337 120.276C184.775 120.276 183.389 119.923 182.179 119.219C180.97 118.499 180.02 117.519 179.331 116.279C178.642 115.024 178.298 113.584 178.298 111.961C178.298 110.338 178.642 108.907 179.331 107.666C180.02 106.411 180.962 105.431 182.156 104.726C183.366 104.007 184.752 103.647 186.314 103.647C187.416 103.647 188.442 103.846 189.391 104.244C190.341 104.627 191.167 105.17 191.872 105.875C192.591 106.564 193.143 107.36 193.525 108.263L190.609 109.343C190.348 108.776 190.004 108.286 189.575 107.873C189.146 107.444 188.656 107.115 188.105 106.885C187.554 106.64 186.957 106.518 186.314 106.518C185.38 106.518 184.545 106.755 183.81 107.23C183.09 107.689 182.524 108.325 182.11 109.136C181.712 109.948 181.513 110.889 181.513 111.961C181.513 113.033 181.72 113.982 182.133 114.809C182.547 115.621 183.121 116.264 183.856 116.739C184.591 117.198 185.433 117.428 186.382 117.428C187.041 117.428 187.638 117.305 188.174 117.06C188.725 116.8 189.208 116.448 189.621 116.004C190.05 115.56 190.394 115.047 190.654 114.465L193.571 115.521C193.189 116.455 192.637 117.282 191.918 118.002C191.213 118.721 190.387 119.28 189.437 119.678C188.488 120.077 187.454 120.276 186.337 120.276ZM195.882 120V103.923H206.057V106.794H199.029V110.445H205.092V113.247H199.029V117.129H206.149V120H195.882ZM214.805 120.276C213.993 120.276 213.235 120.176 212.531 119.977C211.826 119.778 211.199 119.502 210.647 119.15C210.096 118.783 209.637 118.377 209.269 117.933C208.917 117.489 208.687 117.022 208.58 116.532L211.658 115.613C211.857 116.134 212.209 116.585 212.714 116.968C213.22 117.336 213.855 117.527 214.621 117.542C215.432 117.558 216.091 117.382 216.596 117.014C217.117 116.647 217.377 116.172 217.377 115.59C217.377 115.085 217.17 114.664 216.757 114.327C216.359 113.975 215.807 113.707 215.103 113.523L213.013 112.972C212.232 112.773 211.543 112.474 210.946 112.076C210.349 111.663 209.882 111.157 209.545 110.56C209.208 109.963 209.04 109.266 209.04 108.47C209.04 106.954 209.537 105.775 210.533 104.933C211.543 104.076 212.967 103.647 214.805 103.647C215.83 103.647 216.726 103.8 217.492 104.106C218.273 104.397 218.923 104.818 219.444 105.37C219.965 105.921 220.363 106.572 220.638 107.322L217.584 108.263C217.4 107.743 217.063 107.299 216.573 106.931C216.083 106.564 215.463 106.38 214.713 106.38C213.947 106.38 213.342 106.556 212.898 106.908C212.469 107.261 212.255 107.758 212.255 108.401C212.255 108.907 212.424 109.305 212.76 109.596C213.113 109.887 213.587 110.109 214.184 110.262L216.297 110.79C217.675 111.127 218.747 111.732 219.513 112.604C220.278 113.477 220.661 114.449 220.661 115.521C220.661 116.471 220.432 117.305 219.972 118.025C219.513 118.729 218.847 119.28 217.974 119.678C217.101 120.077 216.045 120.276 214.805 120.276Z" fill="#071D3D"/>
<path d="M6.06959 57.01L23.0679 46.0447L101.031 144.82L84.0971 156L6.06959 57.01Z" fill="url(#paint0_linear_1_3)"/>
<rect x="83.9362" y="155.934" width="18.9176" height="56.7527" transform="rotate(-90 83.9362 155.934)" fill="url(#paint1_linear_1_3)"/>
<rect x="83.9362" y="49.1759" width="19.3056" height="106.502" fill="url(#paint2_linear_1_3)"/>
<rect width="20.2263" height="132.886" transform="matrix(0.840353 0.542039 -0.619517 0.784983 88.3953 40.5013)" fill="url(#paint3_linear_1_3)"/>
<path d="M112.34 27.1419L108.673 57.8211L81.4422 40.2548L112.34 27.1419Z" fill="url(#paint4_linear_1_3)"/>
<defs>
<linearGradient id="paint0_linear_1_3" x1="14.5687" y1="51.5273" x2="82.4728" y2="156.791" gradientUnits="userSpaceOnUse">
<stop stop-color="#134DA3"/>
<stop offset="1" stop-color="#071D3D"/>
</linearGradient>
<linearGradient id="paint1_linear_1_3" x1="93.395" y1="212.686" x2="93.395" y2="155.934" gradientUnits="userSpaceOnUse">
<stop stop-color="#134DA3"/>
<stop offset="1" stop-color="#071D3D"/>
</linearGradient>
<linearGradient id="paint2_linear_1_3" x1="93.589" y1="49.1759" x2="93.589" y2="155.678" gradientUnits="userSpaceOnUse">
<stop stop-color="#134DA3"/>
<stop offset="1" stop-color="#071D3D"/>
</linearGradient>
<linearGradient id="paint3_linear_1_3" x1="8.22337" y1="3.68555" x2="9.59392" y2="132.891" gradientUnits="userSpaceOnUse">
<stop stop-color="#4E8FE6"/>
<stop offset="0.5" stop-color="#12376A"/>
<stop offset="1" stop-color="#071D3D"/>
</linearGradient>
<linearGradient id="paint4_linear_1_3" x1="93.15" y1="49.3258" x2="109.905" y2="25.9692" gradientUnits="userSpaceOnUse">
<stop stop-color="#4E8FE6"/>
<stop offset="0.5" stop-color="#A7C7F3"/>
<stop offset="1" stop-color="white"/>
</linearGradient>
</defs>
</svg>
