<svg width="800" height="222" viewBox="0 0 800 222" fill="none" xmlns="http://www.w3.org/2000/svg">
<rect width="800" height="222" fill="white"/>
<rect x="87.4964" y="183.573" width="132.045" height="38.2208" transform="rotate(-90 87.4964 183.573)" fill="#071D3D"/>
<rect x="188.26" y="196.301" width="100.764" height="27.0454" transform="rotate(-180 188.26 196.301)" fill="#071D3D"/>
<path d="M189.058 105.991L192.965 115.495H193.2L200.339 105.991H208.756L197.21 121.032L204.055 136.074H195.903L191.849 126.467H191.614L184.387 136.074H175.912L187.765 121.032L181.141 105.991H189.058ZM207.522 136.074L212.516 105.991H219.787L215.792 130.169H228.306L227.308 136.074H207.522ZM244.952 105.991H253.957L258.51 124.616H258.863L269.585 105.991H278.59L273.596 136.074H266.516L269.585 117.595H269.336L259.083 135.883H254.574L250.402 117.492H250.152L247.038 136.074H239.958L244.952 105.991ZM284.638 136.074H276.823L291.967 105.991H301.647L306.803 136.074H298.989L295.684 113.57H295.449L284.638 136.074ZM285.578 124.234H301.912L300.972 129.757H284.638L285.578 124.234ZM340.639 105.991L335.645 136.074H329.475L320.412 118.711H320.207L317.313 136.074H310.042L315.036 105.991H321.294L330.283 123.324H330.533L333.382 105.991H340.639ZM346.724 136.074H338.909L354.053 105.991H363.733L368.889 136.074H361.074L357.77 113.57H357.534L346.724 136.074ZM347.664 124.234H363.998L363.057 129.757H346.724L347.664 124.234ZM393.819 115.818C393.761 115.201 393.624 114.657 393.408 114.187C393.193 113.707 392.899 113.301 392.527 112.968C392.155 112.635 391.694 112.385 391.146 112.219C390.598 112.043 389.961 111.955 389.237 111.955C387.787 111.955 386.446 112.307 385.212 113.012C383.978 113.717 382.935 114.745 382.083 116.097C381.231 117.438 380.648 119.069 380.335 120.988C380.022 122.917 380.012 124.562 380.306 125.924C380.609 127.285 381.216 128.323 382.127 129.038C383.038 129.753 384.242 130.11 385.741 130.11C387.082 130.11 388.267 129.895 389.295 129.464C390.323 129.023 391.156 128.401 391.792 127.598C392.439 126.795 392.845 125.85 393.012 124.763L394.348 124.925H387.033L387.915 119.622H400.87L400.209 123.603C399.768 126.296 398.818 128.602 397.359 130.521C395.91 132.441 394.099 133.914 391.925 134.943C389.76 135.971 387.386 136.485 384.801 136.485C381.941 136.485 379.527 135.863 377.559 134.619C375.591 133.376 374.19 131.603 373.358 129.302C372.526 126.991 372.369 124.249 372.888 121.076C373.299 118.609 374.029 116.42 375.077 114.51C376.134 112.591 377.427 110.966 378.954 109.634C380.492 108.302 382.191 107.293 384.051 106.608C385.912 105.922 387.846 105.58 389.853 105.58C391.587 105.58 393.163 105.829 394.583 106.329C396.003 106.828 397.217 107.533 398.226 108.444C399.235 109.355 399.994 110.437 400.503 111.69C401.022 112.944 401.247 114.32 401.178 115.818H393.819ZM402.423 136.074L407.418 105.991H428.393L427.394 111.896H413.69L412.691 118.065H425.323L424.324 123.985H411.692L410.693 130.169H424.398L423.399 136.074H402.423ZM432.947 105.991H441.951L446.504 124.616H446.857L457.58 105.991H466.584L461.59 136.074H454.51L457.58 117.595H457.33L447.077 135.883H442.568L438.396 117.492H438.146L435.032 136.074H427.952L432.947 105.991ZM466.125 136.074L471.119 105.991H492.095L491.096 111.896H477.391L476.392 118.065H489.025L488.026 123.985H475.394L474.395 130.169H488.099L487.1 136.074H466.125ZM522.251 105.991L517.257 136.074H511.087L502.024 118.711H501.819L498.925 136.074H491.654L496.648 105.991H502.906L511.895 123.324H512.145L514.994 105.991H522.251ZM524.84 111.896L525.838 105.991H551.265L550.266 111.896H541.144L537.149 136.074H529.981L533.976 111.896H524.84ZM578.435 115.069C578.514 113.962 578.22 113.105 577.554 112.498C576.898 111.891 575.86 111.587 574.44 111.587C573.5 111.587 572.697 111.71 572.031 111.955C571.365 112.19 570.841 112.523 570.459 112.953C570.077 113.375 569.837 113.864 569.739 114.422C569.651 114.863 569.676 115.255 569.813 115.597C569.95 115.94 570.19 116.244 570.533 116.508C570.885 116.773 571.321 117.003 571.84 117.199C572.369 117.394 572.961 117.566 573.617 117.713L576.085 118.3C577.515 118.623 578.753 119.054 579.801 119.593C580.859 120.122 581.716 120.763 582.372 121.517C583.028 122.261 583.478 123.118 583.723 124.088C583.968 125.057 583.988 126.144 583.782 127.348C583.469 129.248 582.719 130.879 581.535 132.24C580.359 133.601 578.822 134.644 576.922 135.369C575.032 136.093 572.834 136.455 570.327 136.455C567.82 136.455 565.69 136.078 563.937 135.324C562.194 134.561 560.931 133.41 560.148 131.873C559.364 130.335 559.154 128.396 559.516 126.056H566.464C566.356 127.025 566.479 127.833 566.831 128.479C567.193 129.126 567.752 129.615 568.506 129.948C569.26 130.281 570.17 130.448 571.238 130.448C572.217 130.448 573.074 130.316 573.808 130.051C574.552 129.787 575.145 129.42 575.586 128.95C576.036 128.479 576.31 127.941 576.408 127.334C576.506 126.776 576.413 126.291 576.129 125.88C575.855 125.468 575.385 125.111 574.719 124.807C574.063 124.504 573.201 124.23 572.134 123.985L569.123 123.25C566.635 122.643 564.75 121.674 563.467 120.342C562.194 119.01 561.744 117.203 562.116 114.922C562.429 113.051 563.203 111.416 564.437 110.016C565.68 108.615 567.252 107.528 569.152 106.755C571.061 105.971 573.162 105.58 575.453 105.58C577.784 105.58 579.743 105.976 581.329 106.769C582.925 107.553 584.076 108.659 584.781 110.089C585.496 111.509 585.701 113.169 585.398 115.069H578.435ZM586.015 136.074L591.009 105.991H611.984L610.986 111.896H597.281L596.282 118.065H608.914L607.916 123.985H595.283L594.284 130.169H607.989L606.99 136.074H586.015ZM611.544 136.074L616.538 105.991H628.965C631.217 105.991 633.097 106.397 634.605 107.21C636.113 108.013 637.185 109.169 637.822 110.677C638.458 112.175 638.605 113.952 638.263 116.009C637.93 118.085 637.185 119.852 636.03 121.311C634.884 122.761 633.406 123.867 631.594 124.631C629.792 125.395 627.745 125.777 625.454 125.777H617.595L618.565 120.048H625.072C626.159 120.048 627.099 119.906 627.892 119.622C628.686 119.328 629.317 118.888 629.787 118.3C630.267 117.703 630.585 116.939 630.742 116.009C630.889 115.078 630.82 114.31 630.536 113.703C630.262 113.086 629.777 112.625 629.082 112.322C628.397 112.008 627.515 111.852 626.438 111.852H622.854L618.815 136.074H611.544ZM630.757 122.325L635.971 136.074H628.039L622.986 122.325H630.757ZM650.19 105.991L653.26 128.024H653.51L663.895 105.991H672.032L656.888 136.074H647.208L642.052 105.991H650.19ZM682.542 105.991L677.548 136.074H670.277L675.271 105.991H682.542ZM712.577 116.89H705.321C705.36 116.126 705.286 115.446 705.1 114.848C704.914 114.241 704.62 113.722 704.219 113.291C703.817 112.851 703.318 112.518 702.721 112.292C702.123 112.067 701.428 111.955 700.635 111.955C699.117 111.955 697.741 112.332 696.507 113.086C695.273 113.84 694.24 114.927 693.408 116.347C692.576 117.766 691.993 119.47 691.66 121.458C691.356 123.378 691.361 124.979 691.675 126.261C691.998 127.544 692.595 128.509 693.467 129.155C694.338 129.792 695.445 130.11 696.786 130.11C697.658 130.11 698.466 130.007 699.21 129.801C699.964 129.586 700.645 129.278 701.252 128.876C701.859 128.475 702.383 127.99 702.823 127.422C703.274 126.844 703.622 126.203 703.866 125.498H711.181C710.819 126.82 710.222 128.137 709.389 129.449C708.567 130.751 707.529 131.931 706.275 132.989C705.022 134.047 703.568 134.894 701.913 135.53C700.258 136.167 698.417 136.485 696.39 136.485C693.618 136.485 691.229 135.863 689.222 134.619C687.224 133.376 685.78 131.574 684.888 129.214C684.007 126.844 683.841 123.975 684.389 120.606C684.928 117.345 685.99 114.599 687.576 112.366C689.173 110.133 691.112 108.444 693.393 107.298C695.685 106.153 698.128 105.58 700.723 105.58C702.603 105.58 704.292 105.834 705.791 106.344C707.299 106.843 708.577 107.577 709.624 108.547C710.672 109.506 711.451 110.686 711.96 112.087C712.479 113.487 712.684 115.088 712.577 116.89ZM713.579 136.074L718.573 105.991H739.549L738.55 111.896H724.846L723.847 118.065H736.479L735.48 123.985H722.848L721.849 130.169H735.554L734.555 136.074H713.579ZM758.835 115.069C758.914 113.962 758.62 113.105 757.954 112.498C757.298 111.891 756.26 111.587 754.84 111.587C753.9 111.587 753.097 111.71 752.431 111.955C751.765 112.19 751.241 112.523 750.859 112.953C750.477 113.375 750.238 113.864 750.14 114.422C750.051 114.863 750.076 115.255 750.213 115.597C750.35 115.94 750.59 116.244 750.933 116.508C751.285 116.773 751.721 117.003 752.24 117.199C752.769 117.394 753.361 117.566 754.017 117.713L756.485 118.3C757.915 118.623 759.154 119.054 760.201 119.593C761.259 120.122 762.116 120.763 762.772 121.517C763.428 122.261 763.879 123.118 764.123 124.088C764.368 125.057 764.388 126.144 764.182 127.348C763.869 129.248 763.12 130.879 761.935 132.24C760.76 133.601 759.222 134.644 757.322 135.369C755.432 136.093 753.234 136.455 750.727 136.455C748.22 136.455 746.09 136.078 744.338 135.324C742.594 134.561 741.331 133.41 740.548 131.873C739.764 130.335 739.554 128.396 739.916 126.056H746.864C746.756 127.025 746.879 127.833 747.231 128.479C747.594 129.126 748.152 129.615 748.906 129.948C749.66 130.281 750.57 130.448 751.638 130.448C752.617 130.448 753.474 130.316 754.208 130.051C754.953 129.787 755.545 129.42 755.986 128.95C756.436 128.479 756.71 127.941 756.808 127.334C756.906 126.776 756.813 126.291 756.529 125.88C756.255 125.468 755.785 125.111 755.119 124.807C754.463 124.504 753.601 124.23 752.534 123.985L749.523 123.25C747.035 122.643 745.15 121.674 743.868 120.342C742.594 119.01 742.144 117.203 742.516 114.922C742.83 113.051 743.603 111.416 744.837 110.016C746.081 108.615 747.652 107.528 749.552 106.755C751.462 105.971 753.562 105.58 755.854 105.58C758.184 105.58 760.143 105.976 761.729 106.769C763.325 107.553 764.476 108.659 765.181 110.089C765.896 111.509 766.101 113.169 765.798 115.069H758.835Z" fill="#071D3D"/>
<path d="M295.434 162L293.278 146.38H295.8L297.183 158.339H297.346L302.674 146.38H305.237L306.538 158.298H306.701L312.07 146.38H314.592L307.23 162H304.871L303.447 150H303.203L297.793 162H295.434ZM319.108 152.604L317.562 162H315.162L318.619 141.174H321.019L319.758 148.821H319.962C320.45 148.007 321.101 147.363 321.914 146.889C322.735 146.414 323.765 146.177 325.006 146.177C326.063 146.177 326.955 146.39 327.68 146.817C328.412 147.238 328.928 147.885 329.226 148.76C329.531 149.628 329.575 150.733 329.358 152.075L327.69 162H325.29L326.917 152.238C327.121 150.997 326.955 150.038 326.419 149.36C325.89 148.675 325.067 148.333 323.948 148.333C323.162 148.333 322.429 148.499 321.752 148.831C321.08 149.163 320.511 149.648 320.043 150.285C319.582 150.922 319.27 151.695 319.108 152.604ZM338.589 162.325C337.091 162.325 335.854 161.993 334.877 161.329C333.901 160.658 333.22 159.722 332.833 158.522C332.447 157.315 332.386 155.912 332.65 154.312C332.915 152.712 333.44 151.302 334.227 150.082C335.013 148.855 335.993 147.899 337.165 147.214C338.338 146.523 339.626 146.177 341.03 146.177C341.843 146.177 342.626 146.312 343.379 146.584C344.131 146.855 344.782 147.295 345.331 147.906C345.88 148.509 346.263 149.309 346.48 150.305C346.697 151.302 346.684 152.529 346.44 153.987L346.277 155.004H334.237L334.562 152.929H344.162C344.318 152.048 344.277 151.261 344.04 150.57C343.809 149.878 343.406 149.333 342.83 148.933C342.26 148.533 341.538 148.333 340.664 148.333C339.762 148.333 338.921 148.577 338.142 149.065C337.362 149.546 336.711 150.156 336.189 150.895C335.667 151.627 335.342 152.373 335.213 153.133L334.928 154.922C334.725 156.217 334.755 157.248 335.02 158.014C335.291 158.78 335.762 159.332 336.433 159.671C337.104 160.003 337.945 160.17 338.955 160.17C339.599 160.17 340.192 160.081 340.735 159.905C341.277 159.722 341.762 159.451 342.189 159.092C342.616 158.726 342.975 158.271 343.267 157.729L345.463 158.38C345.091 159.166 344.565 159.858 343.887 160.454C343.216 161.044 342.43 161.505 341.528 161.837C340.633 162.163 339.653 162.325 338.589 162.325ZM348.804 162L351.407 146.38H353.726L353.319 148.739H353.482C353.889 147.967 354.509 147.339 355.343 146.858C356.177 146.377 357.061 146.136 357.997 146.136C358.18 146.136 358.4 146.14 358.658 146.146C358.916 146.146 359.115 146.156 359.258 146.177L358.851 148.617C358.77 148.597 358.587 148.567 358.302 148.526C358.017 148.478 357.712 148.455 357.387 148.455C356.627 148.455 355.926 148.614 355.282 148.933C354.638 149.244 354.099 149.678 353.665 150.234C353.231 150.783 352.953 151.411 352.831 152.116L351.204 162H348.804ZM365.547 162.325C364.049 162.325 362.812 161.993 361.836 161.329C360.86 160.658 360.178 159.722 359.792 158.522C359.405 157.315 359.344 155.912 359.609 154.312C359.873 152.712 360.399 151.302 361.185 150.082C361.971 148.855 362.951 147.899 364.124 147.214C365.297 146.523 366.585 146.177 367.988 146.177C368.802 146.177 369.585 146.312 370.337 146.584C371.09 146.855 371.741 147.295 372.29 147.906C372.839 148.509 373.222 149.309 373.439 150.305C373.656 151.302 373.642 152.529 373.398 153.987L373.235 155.004H361.195L361.521 152.929H371.12C371.276 152.048 371.235 151.261 370.998 150.57C370.768 149.878 370.364 149.333 369.788 148.933C369.219 148.533 368.497 148.333 367.622 148.333C366.72 148.333 365.88 148.577 365.1 149.065C364.32 149.546 363.67 150.156 363.148 150.895C362.626 151.627 362.3 152.373 362.171 153.133L361.887 154.922C361.683 156.217 361.714 157.248 361.978 158.014C362.249 158.78 362.72 159.332 363.392 159.671C364.063 160.003 364.903 160.17 365.914 160.17C366.558 160.17 367.151 160.081 367.693 159.905C368.236 159.722 368.72 159.451 369.147 159.092C369.574 158.726 369.934 158.271 370.225 157.729L372.422 158.38C372.049 159.166 371.524 159.858 370.846 160.454C370.174 161.044 369.388 161.505 368.486 161.837C367.591 162.163 366.612 162.325 365.547 162.325ZM390.325 162.325C388.826 162.325 387.589 161.993 386.613 161.329C385.637 160.658 384.955 159.722 384.569 158.522C384.182 157.315 384.121 155.912 384.386 154.312C384.65 152.712 385.176 151.302 385.962 150.082C386.748 148.855 387.728 147.899 388.901 147.214C390.074 146.523 391.362 146.177 392.765 146.177C393.579 146.177 394.362 146.312 395.114 146.584C395.867 146.855 396.518 147.295 397.067 147.906C397.616 148.509 397.999 149.309 398.216 150.305C398.433 151.302 398.419 152.529 398.175 153.987L398.012 155.004H385.972L386.298 152.929H395.897C396.053 152.048 396.013 151.261 395.775 150.57C395.545 149.878 395.141 149.333 394.565 148.933C393.996 148.533 393.274 148.333 392.399 148.333C391.497 148.333 390.657 148.577 389.877 149.065C389.098 149.546 388.447 150.156 387.925 150.895C387.403 151.627 387.077 152.373 386.948 153.133L386.664 154.922C386.46 156.217 386.491 157.248 386.755 158.014C387.026 158.78 387.498 159.332 388.169 159.671C388.84 160.003 389.681 160.17 390.691 160.17C391.335 160.17 391.928 160.081 392.47 159.905C393.013 159.722 393.497 159.451 393.924 159.092C394.352 158.726 394.711 158.271 395.002 157.729L397.199 158.38C396.826 159.166 396.301 159.858 395.623 160.454C394.952 161.044 394.165 161.505 393.264 161.837C392.369 162.163 391.389 162.325 390.325 162.325ZM404.513 146.38L407.198 152.766L411.998 146.38H414.764L408.418 154.19L412.16 162H409.394L406.669 155.939L401.91 162H399.144L405.408 154.19L401.747 146.38H404.513ZM421.246 162.325C419.775 162.325 418.569 161.98 417.626 161.288C416.691 160.597 416.04 159.644 415.674 158.431C415.308 157.217 415.253 155.831 415.511 154.271C415.769 152.685 416.291 151.285 417.077 150.072C417.864 148.851 418.843 147.899 420.016 147.214C421.189 146.523 422.48 146.177 423.89 146.177C424.989 146.177 425.945 146.38 426.758 146.787C427.572 147.194 428.199 147.763 428.639 148.495C429.08 149.228 429.287 150.082 429.26 151.058H426.86C426.792 150.346 426.487 149.716 425.945 149.167C425.409 148.611 424.616 148.333 423.565 148.333C422.629 148.333 421.768 148.577 420.982 149.065C420.196 149.546 419.535 150.228 418.999 151.109C418.463 151.983 418.101 153.01 417.911 154.19C417.708 155.397 417.725 156.448 417.962 157.343C418.199 158.237 418.63 158.932 419.253 159.427C419.877 159.922 420.663 160.17 421.613 160.17C422.236 160.17 422.819 160.061 423.362 159.844C423.904 159.627 424.385 159.315 424.806 158.909C425.226 158.502 425.558 158.014 425.802 157.444H428.202C427.904 158.366 427.426 159.197 426.768 159.936C426.111 160.668 425.314 161.251 424.379 161.685C423.443 162.112 422.399 162.325 421.246 162.325ZM437.446 162.325C435.948 162.325 434.71 161.993 433.734 161.329C432.758 160.658 432.077 159.722 431.69 158.522C431.304 157.315 431.243 155.912 431.507 154.312C431.772 152.712 432.297 151.302 433.083 150.082C433.87 148.855 434.849 147.899 436.022 147.214C437.195 146.523 438.483 146.177 439.887 146.177C440.7 146.177 441.483 146.312 442.236 146.584C442.988 146.855 443.639 147.295 444.188 147.906C444.737 148.509 445.12 149.309 445.337 150.305C445.554 151.302 445.541 152.529 445.296 153.987L445.134 155.004H433.094L433.419 152.929H443.019C443.175 152.048 443.134 151.261 442.897 150.57C442.666 149.878 442.263 149.333 441.686 148.933C441.117 148.533 440.395 148.333 439.52 148.333C438.619 148.333 437.778 148.577 436.998 149.065C436.219 149.546 435.568 150.156 435.046 150.895C434.524 151.627 434.199 152.373 434.07 153.133L433.785 154.922C433.582 156.217 433.612 157.248 433.877 158.014C434.148 158.78 434.619 159.332 435.29 159.671C435.961 160.003 436.802 160.17 437.812 160.17C438.456 160.17 439.049 160.081 439.592 159.905C440.134 159.722 440.619 159.451 441.046 159.092C441.473 158.726 441.832 158.271 442.124 157.729L444.32 158.38C443.947 159.166 443.422 159.858 442.744 160.454C442.073 161.044 441.286 161.505 440.385 161.837C439.49 162.163 438.51 162.325 437.446 162.325ZM453.518 141.174L450.061 162H447.661L451.118 141.174H453.518ZM460.314 141.174L456.856 162H454.456L457.914 141.174H460.314ZM467.76 162.325C466.262 162.325 465.025 161.993 464.048 161.329C463.072 160.658 462.391 159.722 462.004 158.522C461.618 157.315 461.557 155.912 461.821 154.312C462.086 152.712 462.611 151.302 463.398 150.082C464.184 148.855 465.164 147.899 466.336 147.214C467.509 146.523 468.797 146.177 470.201 146.177C471.014 146.177 471.797 146.312 472.55 146.584C473.302 146.855 473.953 147.295 474.502 147.906C475.051 148.509 475.434 149.309 475.651 150.305C475.868 151.302 475.855 152.529 475.611 153.987L475.448 155.004H463.408L463.733 152.929H473.333C473.489 152.048 473.448 151.261 473.211 150.57C472.98 149.878 472.577 149.333 472.001 148.933C471.431 148.533 470.709 148.333 469.835 148.333C468.933 148.333 468.092 148.577 467.313 149.065C466.533 149.546 465.882 150.156 465.36 150.895C464.838 151.627 464.513 152.373 464.384 153.133L464.099 154.922C463.896 156.217 463.926 157.248 464.191 158.014C464.462 158.78 464.933 159.332 465.604 159.671C466.275 160.003 467.116 160.17 468.126 160.17C468.77 160.17 469.363 160.081 469.906 159.905C470.448 159.722 470.933 159.451 471.36 159.092C471.787 158.726 472.146 158.271 472.438 157.729L474.634 158.38C474.262 159.166 473.736 159.858 473.058 160.454C472.387 161.044 471.601 161.505 470.699 161.837C469.804 162.163 468.825 162.325 467.76 162.325ZM481.921 152.604L480.375 162H477.975L480.578 146.38H482.897L482.49 148.821H482.694C483.182 148.028 483.843 147.39 484.677 146.909C485.51 146.421 486.517 146.177 487.697 146.177C488.741 146.177 489.622 146.394 490.341 146.828C491.066 147.255 491.578 147.906 491.876 148.78C492.181 149.648 492.225 150.746 492.008 152.075L490.341 162H487.941L489.568 152.238C489.771 151.017 489.612 150.061 489.09 149.37C488.575 148.678 487.758 148.333 486.639 148.333C485.866 148.333 485.151 148.499 484.493 148.831C483.843 149.163 483.29 149.648 482.836 150.285C482.388 150.922 482.083 151.695 481.921 152.604ZM501.031 162.325C499.56 162.325 498.353 161.98 497.411 161.288C496.475 160.597 495.824 159.644 495.458 158.431C495.092 157.217 495.038 155.831 495.296 154.271C495.553 152.685 496.075 151.285 496.862 150.072C497.648 148.851 498.628 147.899 499.801 147.214C500.973 146.523 502.265 146.177 503.675 146.177C504.773 146.177 505.729 146.38 506.543 146.787C507.356 147.194 507.983 147.763 508.424 148.495C508.865 149.228 509.071 150.082 509.044 151.058H506.644C506.577 150.346 506.272 149.716 505.729 149.167C505.194 148.611 504.4 148.333 503.35 148.333C502.414 148.333 501.553 148.577 500.767 149.065C499.98 149.546 499.319 150.228 498.784 151.109C498.248 151.983 497.885 153.01 497.696 154.19C497.492 155.397 497.509 156.448 497.746 157.343C497.984 158.237 498.414 158.932 499.038 159.427C499.662 159.922 500.448 160.17 501.397 160.17C502.021 160.17 502.604 160.061 503.146 159.844C503.689 159.627 504.17 159.315 504.59 158.909C505.011 158.502 505.343 158.014 505.587 157.444H507.987C507.688 158.366 507.211 159.197 506.553 159.936C505.895 160.668 505.099 161.251 504.163 161.685C503.228 162.112 502.184 162.325 501.031 162.325ZM517.231 162.325C515.732 162.325 514.495 161.993 513.519 161.329C512.543 160.658 511.861 159.722 511.475 158.522C511.088 157.315 511.027 155.912 511.292 154.312C511.556 152.712 512.082 151.302 512.868 150.082C513.654 148.855 514.634 147.899 515.807 147.214C516.98 146.523 518.268 146.177 519.671 146.177C520.485 146.177 521.268 146.312 522.02 146.584C522.773 146.855 523.424 147.295 523.973 147.906C524.522 148.509 524.905 149.309 525.122 150.305C525.339 151.302 525.325 152.529 525.081 153.987L524.918 155.004H512.878L513.204 152.929H522.803C522.959 152.048 522.918 151.261 522.681 150.57C522.451 149.878 522.047 149.333 521.471 148.933C520.902 148.533 520.18 148.333 519.305 148.333C518.403 148.333 517.563 148.577 516.783 149.065C516.003 149.546 515.353 150.156 514.831 150.895C514.309 151.627 513.983 152.373 513.854 153.133L513.57 154.922C513.366 156.217 513.397 157.248 513.661 158.014C513.932 158.78 514.403 159.332 515.075 159.671C515.746 160.003 516.586 160.17 517.597 160.17C518.241 160.17 518.834 160.081 519.376 159.905C519.919 159.722 520.403 159.451 520.83 159.092C521.257 158.726 521.617 158.271 521.908 157.729L524.105 158.38C523.732 159.166 523.207 159.858 522.529 160.454C521.857 161.044 521.071 161.505 520.169 161.837C519.275 162.163 518.295 162.325 517.231 162.325ZM535.499 162L538.103 146.38H540.421L540.014 148.821H540.218C540.686 147.987 541.32 147.339 542.119 146.878C542.926 146.411 543.838 146.177 544.855 146.177C545.872 146.177 546.689 146.411 547.306 146.878C547.923 147.339 548.353 147.987 548.597 148.821H548.76C549.289 148.007 549.994 147.363 550.875 146.889C551.763 146.414 552.767 146.177 553.885 146.177C555.268 146.177 556.333 146.614 557.078 147.489C557.831 148.363 558.055 149.716 557.749 151.546L556 162H553.6L555.35 151.546C555.533 150.387 555.35 149.563 554.8 149.075C554.258 148.58 553.56 148.333 552.706 148.333C551.607 148.333 550.702 148.661 549.99 149.319C549.279 149.977 548.841 150.814 548.679 151.831L546.97 162H544.53L546.319 151.302C546.462 150.407 546.292 149.689 545.811 149.146C545.33 148.604 544.631 148.333 543.716 148.333C543.092 148.333 542.482 148.502 541.886 148.841C541.289 149.173 540.777 149.634 540.35 150.224C539.923 150.807 539.648 151.478 539.526 152.238L537.899 162H535.499ZM566.897 162.325C565.398 162.325 564.161 161.993 563.185 161.329C562.209 160.658 561.527 159.722 561.141 158.522C560.754 157.315 560.693 155.912 560.958 154.312C561.222 152.712 561.748 151.302 562.534 150.082C563.32 148.855 564.3 147.899 565.473 147.214C566.646 146.523 567.934 146.177 569.337 146.177C570.151 146.177 570.934 146.312 571.686 146.584C572.439 146.855 573.09 147.295 573.639 147.906C574.188 148.509 574.571 149.309 574.788 150.305C575.005 151.302 574.991 152.529 574.747 153.987L574.585 155.004H562.544L562.87 152.929H572.469C572.625 152.048 572.585 151.261 572.347 150.57C572.117 149.878 571.713 149.333 571.137 148.933C570.568 148.533 569.846 148.333 568.971 148.333C568.069 148.333 567.229 148.577 566.449 149.065C565.67 149.546 565.019 150.156 564.497 150.895C563.975 151.627 563.649 152.373 563.52 153.133L563.236 154.922C563.032 156.217 563.063 157.248 563.327 158.014C563.598 158.78 564.07 159.332 564.741 159.671C565.412 160.003 566.253 160.17 567.263 160.17C567.907 160.17 568.5 160.081 569.042 159.905C569.585 159.722 570.069 159.451 570.497 159.092C570.924 158.726 571.283 158.271 571.574 157.729L573.771 158.38C573.398 159.166 572.873 159.858 572.195 160.454C571.524 161.044 570.737 161.505 569.836 161.837C568.941 162.163 567.961 162.325 566.897 162.325ZM583.62 162.325C582.122 162.325 580.884 161.993 579.908 161.329C578.932 160.658 578.25 159.722 577.864 158.522C577.478 157.315 577.417 155.912 577.681 154.312C577.945 152.712 578.471 151.302 579.257 150.082C580.044 148.855 581.023 147.899 582.196 147.214C583.369 146.523 584.657 146.177 586.06 146.177C586.874 146.177 587.657 146.312 588.409 146.584C589.162 146.855 589.813 147.295 590.362 147.906C590.911 148.509 591.294 149.309 591.511 150.305C591.728 151.302 591.714 152.529 591.47 153.987L591.308 155.004H579.267L579.593 152.929H589.192C589.348 152.048 589.308 151.261 589.07 150.57C588.84 149.878 588.437 149.333 587.86 148.933C587.291 148.533 586.569 148.333 585.694 148.333C584.793 148.333 583.952 148.577 583.172 149.065C582.393 149.546 581.742 150.156 581.22 150.895C580.698 151.627 580.372 152.373 580.244 153.133L579.959 154.922C579.756 156.217 579.786 157.248 580.05 158.014C580.322 158.78 580.793 159.332 581.464 159.671C582.135 160.003 582.976 160.17 583.986 160.17C584.63 160.17 585.223 160.081 585.765 159.905C586.308 159.722 586.793 159.451 587.22 159.092C587.647 158.726 588.006 158.271 588.298 157.729L590.494 158.38C590.121 159.166 589.596 159.858 588.918 160.454C588.247 161.044 587.46 161.505 586.559 161.837C585.664 162.163 584.684 162.325 583.62 162.325ZM603.231 146.38L602.906 148.414H594.811L595.136 146.38H603.231ZM598.106 142.638H600.506L598.024 157.526C597.916 158.204 597.933 158.712 598.075 159.051C598.224 159.383 598.448 159.607 598.746 159.722C599.051 159.831 599.38 159.885 599.733 159.885C599.997 159.885 600.214 159.871 600.384 159.844C600.553 159.81 600.689 159.783 600.79 159.763L600.953 161.919C600.77 161.98 600.523 162.041 600.211 162.102C599.906 162.169 599.529 162.203 599.082 162.203C598.404 162.203 597.767 162.058 597.17 161.766C596.574 161.475 596.116 161.031 595.797 160.434C595.479 159.837 595.394 159.085 595.543 158.176L598.106 142.638ZM617.056 149.878L614.778 150.489C614.697 150.122 614.554 149.77 614.351 149.431C614.154 149.085 613.849 148.804 613.436 148.587C613.029 148.363 612.473 148.251 611.768 148.251C610.812 148.251 609.982 148.472 609.277 148.912C608.571 149.346 608.168 149.899 608.066 150.57C607.965 151.16 608.1 151.631 608.473 151.983C608.846 152.336 609.47 152.624 610.344 152.848L612.582 153.417C613.924 153.763 614.88 154.282 615.449 154.973C616.025 155.658 616.222 156.549 616.039 157.648C615.89 158.542 615.5 159.342 614.87 160.048C614.239 160.753 613.432 161.308 612.449 161.715C611.466 162.122 610.371 162.325 609.165 162.325C607.558 162.325 606.29 161.98 605.361 161.288C604.433 160.59 603.938 159.58 603.877 158.258L606.277 157.688C606.338 158.522 606.636 159.153 607.172 159.58C607.714 160 608.473 160.21 609.449 160.21C610.568 160.21 611.5 159.973 612.246 159.498C612.992 159.017 613.415 158.441 613.517 157.77C613.619 157.221 613.51 156.763 613.192 156.397C612.88 156.031 612.337 155.756 611.565 155.573L609.083 154.963C607.7 154.617 606.731 154.088 606.175 153.377C605.626 152.665 605.443 151.77 605.626 150.692C605.775 149.811 606.155 149.031 606.765 148.353C607.382 147.675 608.155 147.143 609.083 146.756C610.019 146.37 611.036 146.177 612.134 146.177C613.68 146.177 614.836 146.516 615.602 147.194C616.368 147.865 616.853 148.76 617.056 149.878ZM625.997 167.857L629.597 146.38H631.916L631.509 148.861H631.794C632.011 148.59 632.309 148.245 632.688 147.824C633.075 147.397 633.594 147.017 634.244 146.685C634.902 146.346 635.739 146.177 636.756 146.177C638.071 146.177 639.173 146.506 640.061 147.163C640.949 147.821 641.576 148.753 641.942 149.96C642.308 151.166 642.356 152.59 642.085 154.231C641.814 155.885 641.295 157.319 640.529 158.532C639.763 159.739 638.827 160.675 637.722 161.339C636.617 161.997 635.414 162.325 634.112 162.325C633.109 162.325 632.333 162.159 631.783 161.827C631.234 161.488 630.834 161.105 630.583 160.678C630.333 160.244 630.139 159.885 630.004 159.6H629.8L628.417 167.857H625.997ZM630.655 154.19C630.465 155.37 630.465 156.41 630.655 157.312C630.851 158.207 631.241 158.909 631.824 159.417C632.414 159.919 633.19 160.17 634.153 160.17C635.156 160.17 636.034 159.905 636.787 159.376C637.546 158.841 638.17 158.122 638.658 157.22C639.153 156.312 639.495 155.302 639.685 154.19C639.861 153.092 639.854 152.102 639.665 151.221C639.475 150.333 639.088 149.631 638.505 149.116C637.922 148.594 637.122 148.333 636.105 148.333C635.129 148.333 634.265 148.58 633.512 149.075C632.766 149.563 632.15 150.248 631.661 151.129C631.18 152.004 630.844 153.024 630.655 154.19ZM650.96 162.325C649.462 162.325 648.224 161.993 647.248 161.329C646.272 160.658 645.591 159.722 645.204 158.522C644.818 157.315 644.757 155.912 645.021 154.312C645.286 152.712 645.811 151.302 646.597 150.082C647.384 148.855 648.363 147.899 649.536 147.214C650.709 146.523 651.997 146.177 653.4 146.177C654.214 146.177 654.997 146.312 655.75 146.584C656.502 146.855 657.153 147.295 657.702 147.906C658.251 148.509 658.634 149.309 658.851 150.305C659.068 151.302 659.055 152.529 658.81 153.987L658.648 155.004H646.608L646.933 152.929H656.533C656.689 152.048 656.648 151.261 656.411 150.57C656.18 149.878 655.777 149.333 655.2 148.933C654.631 148.533 653.909 148.333 653.034 148.333C652.133 148.333 651.292 148.577 650.512 149.065C649.733 149.546 649.082 150.156 648.56 150.895C648.038 151.627 647.713 152.373 647.584 153.133L647.299 154.922C647.096 156.217 647.126 157.248 647.391 158.014C647.662 158.78 648.133 159.332 648.804 159.671C649.475 160.003 650.316 160.17 651.326 160.17C651.97 160.17 652.563 160.081 653.106 159.905C653.648 159.722 654.133 159.451 654.56 159.092C654.987 158.726 655.346 158.271 655.638 157.729L657.834 158.38C657.461 159.166 656.936 159.858 656.258 160.454C655.587 161.044 654.8 161.505 653.899 161.837C653.004 162.163 652.024 162.325 650.96 162.325ZM661.175 162L663.778 146.38H666.097L665.69 148.739H665.853C666.259 147.967 666.88 147.339 667.714 146.858C668.547 146.377 669.432 146.136 670.368 146.136C670.551 146.136 670.771 146.14 671.029 146.146C671.286 146.146 671.486 146.156 671.629 146.177L671.222 148.617C671.141 148.597 670.958 148.567 670.673 148.526C670.388 148.478 670.083 148.455 669.758 148.455C668.998 148.455 668.297 148.614 667.653 148.933C667.008 149.244 666.47 149.678 666.036 150.234C665.602 150.783 665.324 151.411 665.202 152.116L663.575 162H661.175ZM682.423 146.38L682.098 148.414H673.678L674.003 146.38H682.423ZM673.922 162L676.891 144.224C677.027 143.329 677.352 142.584 677.867 141.987C678.389 141.391 679.01 140.943 679.728 140.645C680.454 140.346 681.189 140.197 681.935 140.197C682.525 140.197 682.996 140.245 683.349 140.34C683.708 140.435 683.969 140.523 684.132 140.604L683.115 142.679C682.993 142.638 682.83 142.587 682.627 142.526C682.43 142.465 682.159 142.435 681.813 142.435C681.02 142.435 680.417 142.635 680.003 143.035C679.589 143.435 679.311 144.021 679.169 144.794L676.322 162H673.922ZM689.048 162.325C687.55 162.325 686.313 161.993 685.337 161.329C684.36 160.658 683.679 159.722 683.293 158.522C682.906 157.315 682.845 155.912 683.11 154.312C683.374 152.712 683.899 151.302 684.686 150.082C685.472 148.855 686.452 147.899 687.625 147.214C688.798 146.523 690.086 146.177 691.489 146.177C692.303 146.177 693.086 146.312 693.838 146.584C694.591 146.855 695.241 147.295 695.791 147.906C696.34 148.509 696.723 149.309 696.94 150.305C697.157 151.302 697.143 152.529 696.899 153.987L696.736 155.004H684.696L685.021 152.929H694.621C694.777 152.048 694.736 151.261 694.499 150.57C694.269 149.878 693.865 149.333 693.289 148.933C692.719 148.533 691.997 148.333 691.123 148.333C690.221 148.333 689.381 148.577 688.601 149.065C687.821 149.546 687.171 150.156 686.649 150.895C686.126 151.627 685.801 152.373 685.672 153.133L685.388 154.922C685.184 156.217 685.215 157.248 685.479 158.014C685.75 158.78 686.221 159.332 686.893 159.671C687.564 160.003 688.404 160.17 689.415 160.17C690.059 160.17 690.652 160.081 691.194 159.905C691.736 159.722 692.221 159.451 692.648 159.092C693.075 158.726 693.435 158.271 693.726 157.729L695.923 158.38C695.55 159.166 695.025 159.858 694.347 160.454C693.675 161.044 692.889 161.505 691.987 161.837C691.092 162.163 690.113 162.325 689.048 162.325ZM705.568 162.325C704.097 162.325 702.89 161.98 701.948 161.288C701.012 160.597 700.362 159.644 699.996 158.431C699.629 157.217 699.575 155.831 699.833 154.271C700.09 152.685 700.612 151.285 701.399 150.072C702.185 148.851 703.165 147.899 704.338 147.214C705.511 146.523 706.802 146.177 708.212 146.177C709.31 146.177 710.266 146.38 711.08 146.787C711.893 147.194 712.521 147.763 712.961 148.495C713.402 149.228 713.609 150.082 713.582 151.058H711.182C711.114 150.346 710.809 149.716 710.266 149.167C709.731 148.611 708.938 148.333 707.887 148.333C706.951 148.333 706.09 148.577 705.304 149.065C704.517 149.546 703.856 150.228 703.321 151.109C702.785 151.983 702.423 153.01 702.233 154.19C702.029 155.397 702.046 156.448 702.284 157.343C702.521 158.237 702.951 158.932 703.575 159.427C704.199 159.922 704.985 160.17 705.934 160.17C706.558 160.17 707.141 160.061 707.683 159.844C708.226 159.627 708.707 159.315 709.127 158.909C709.548 158.502 709.88 158.014 710.124 157.444H712.524C712.226 158.366 711.748 159.197 711.09 159.936C710.432 160.668 709.636 161.251 708.7 161.685C707.765 162.112 706.721 162.325 705.568 162.325ZM724.656 146.38L724.33 148.414H716.236L716.561 146.38H724.656ZM719.53 142.638H721.93L719.449 157.526C719.341 158.204 719.358 158.712 719.5 159.051C719.649 159.383 719.873 159.607 720.171 159.722C720.476 159.831 720.805 159.885 721.158 159.885C721.422 159.885 721.639 159.871 721.808 159.844C721.978 159.81 722.113 159.783 722.215 159.763L722.378 161.919C722.195 161.98 721.947 162.041 721.635 162.102C721.33 162.169 720.954 162.203 720.507 162.203C719.829 162.203 719.191 162.058 718.595 161.766C717.998 161.475 717.541 161.031 717.222 160.434C716.903 159.837 716.819 159.085 716.968 158.176L719.53 142.638ZM725.662 162L728.266 146.38H730.666L728.062 162H725.662ZM730.198 143.736C729.73 143.736 729.327 143.577 728.988 143.258C728.656 142.94 728.489 142.557 728.489 142.109C728.489 141.662 728.656 141.279 728.988 140.96C729.327 140.641 729.73 140.482 730.198 140.482C730.666 140.482 731.066 140.641 731.398 140.96C731.737 141.279 731.906 141.662 731.906 142.109C731.906 142.557 731.737 142.94 731.398 143.258C731.066 143.577 730.666 143.736 730.198 143.736ZM738.905 162.325C737.468 162.325 736.265 161.983 735.295 161.298C734.326 160.614 733.641 159.654 733.241 158.42C732.848 157.187 732.783 155.749 733.048 154.109C733.305 152.509 733.817 151.116 734.583 149.929C735.356 148.736 736.315 147.814 737.461 147.163C738.614 146.506 739.881 146.177 741.264 146.177C742.702 146.177 743.902 146.523 744.864 147.214C745.834 147.899 746.519 148.861 746.919 150.102C747.319 151.336 747.386 152.78 747.122 154.434C746.864 156.021 746.346 157.407 745.566 158.593C744.793 159.773 743.834 160.692 742.688 161.349C741.549 162 740.288 162.325 738.905 162.325ZM738.946 160.17C740.044 160.17 740.997 159.888 741.803 159.326C742.617 158.763 743.275 158.02 743.776 157.098C744.285 156.176 744.627 155.18 744.803 154.109C744.966 153.092 744.959 152.146 744.783 151.272C744.607 150.39 744.23 149.682 743.654 149.146C743.078 148.604 742.268 148.333 741.224 148.333C740.126 148.333 739.166 148.617 738.346 149.187C737.532 149.756 736.875 150.505 736.373 151.434C735.871 152.363 735.536 153.363 735.366 154.434C735.204 155.451 735.207 156.397 735.377 157.271C735.553 158.139 735.929 158.841 736.505 159.376C737.088 159.905 737.902 160.17 738.946 160.17ZM753.49 152.604L751.945 162H749.545L752.148 146.38H754.467L754.06 148.821H754.263C754.751 148.028 755.412 147.39 756.246 146.909C757.08 146.421 758.087 146.177 759.266 146.177C760.31 146.177 761.192 146.394 761.91 146.828C762.636 147.255 763.148 147.906 763.446 148.78C763.751 149.648 763.795 150.746 763.578 152.075L761.91 162H759.51L761.138 152.238C761.341 151.017 761.182 150.061 760.66 149.37C760.144 148.678 759.327 148.333 758.209 148.333C757.436 148.333 756.721 148.499 756.063 148.831C755.412 149.163 754.86 149.648 754.406 150.285C753.958 150.922 753.653 151.695 753.49 152.604Z" fill="#071D3D"/>
<path d="M206.153 69.416L195.758 58.8701L48.6299 205.999L27 184.369L174.284 37.084L163.598 26.2422L217.166 16L206.153 69.416Z" fill="#4E8FE6"/>
</svg>
