<svg xml:space="preserve" style="max-height: 500px" viewBox="18.256 263.408 607.664 119.968" y="0px" x="0px" xmlns:xlink="http://www.w3.org/1999/xlink" xmlns="http://www.w3.org/2000/svg" id="layer" version="1.1" width="607.664" height="119.968">
<style type="text/css">
	.st0{fill:#1FA8E1;}
	.st1{fill:#1A287B;}
</style>
<path d="M477.7,312.6c-0.2-8.5-2.8-14.7-7.8-18.5c-4.8-3.6-12.4-5.3-23-5.3c-15.7,0.1-30.5,5.5-30.5,5.5l-2.1,16.7&#10;&#9;l3.4-1.5c4.7-2,9.4-3.6,14-4.7c4.4-1.1,8.7-1.6,12.8-1.6c5.7,0,9.6,0.7,12.1,2.3c2.2,1.3,3.3,3.4,3.4,6.4c0.1,2.4-0.8,4.4-2.7,6&#10;&#9;c-1.4,1.3-4.8,3.4-13,6.4l-18.5,6.7c-7.1,2.6-12.2,5.9-15.3,9.7c-3.2,4-4.7,9.1-4.5,15.2c0.2,7.1,3.1,12.9,8.5,17.1&#10;&#9;c2.1,1.6,4.7,3,7.1,4c3.6,1.4,7.8,2.1,11.6,2.4c9.5,0.8,18.4-2,25.4-7.6l-0.6,5.8h19.2V361l0.4-41.7&#10;&#9;C477.8,318.7,477.7,312.6,477.7,312.6 M443.1,364.2c-1.8,0.2-3.5,0.3-5.3,0.3c-4.4,0-7.7-0.8-9.9-2.5c-2.1-1.6-3.2-3.8-3.3-6.8&#10;&#9;c-0.1-2.8,0.6-5.1,2.2-6.9c1.5-1.9,4.6-3.7,9.1-5.4l17.7-6.7c2.6-1.1,4.4-1.9,5.9-2.8c0.2-0.1,0.4-0.2,0.5-0.3l-0.7,25.6&#10;&#9;c0,0.4-3.1,1.8-3.6,2C454.7,361.3,448,363.6,443.1,364.2" class="st0"/>
<path d="M395.1,357.6l-0.1-0.4l-2.4,1.2c-4.2,2-8.4,3.6-12.6,4.7c-6.5,1.7-13.6,2.4-20.1,0.5c-2.2-0.7-4.3-1.7-6.1-3&#10;&#9;c-1.8-1.2-3.3-2.7-4.6-4.4c-5.2-6.9-6.3-16.7-5.8-25.2c0.4-6.6,1.8-13.6,5.8-19c1.2-1.6,2.8-3.1,4.6-4.4c1.9-1.3,3.9-2.3,6.1-3&#10;&#9;c9.2-2.7,18.8-0.5,27.5,2.5c2.9,1,6.2,2.3,9.9,3.9l3.1-17.1c-8-2.6-16.2-4.1-24.5-4.9c-7.3-0.7-14.7-0.3-21.7,1.9&#10;&#9;c-6.7,2.1-12.3,5.7-16.6,10.6c-8.3,9.4-10.7,23.4-10,35.7c0.5,9.8,3.4,21,9.5,28.7c6.1,7.7,15.2,11.7,24.6,12.7&#10;&#9;c9.5,1.1,18.8,0,28.1-2.4c3.6-0.9,7.1-2.1,10.6-3.4l0.4-0.1l-0.2-0.3C397.5,367.6,395.7,362.6,395.1,357.6" class="st0"/>
<path d="M550.9,292.2c-4.2-1.1-8.5-2-12.8-2.5c-4.8-0.6-9.8-0.9-15.4-0.8c-11,0.2-18.8,2.1-23.8,5.7&#10;&#9;c-5.1,3.8-7.8,10-8.1,18.4l-0.1,6.7l0,41.6l0,16.3h19.4l-0.3-3c-0.3-2.6-0.7-9.8-0.7-9.8c-0.1-1.3-0.1-2.6-0.1-4.1l-1.2-35.9&#10;&#9;c-0.1-3.7-0.1-7.6,0.3-11c0.3-1.8,1.3-4.6,3.9-6.9c9.9-8.3,27.2-0.3,27.2-0.3c0.2-0.8,0.6-1.7,1-2.5c1.4-2.4,3.1-4.6,5-6.7&#10;&#9;C546.8,295.5,548.8,293.8,550.9,292.2" class="st0"/>
<path d="M604.8,265.5c0.1,1.6,0.5,10.6,0.5,25.3c-3.8-0.7-7-1.2-10.9-1.6c-7.5-0.7-15.2-0.3-22.4,1.9&#10;&#9;c-6.9,2.1-12.7,5.7-17.1,10.6c-8.5,9.4-11,23.4-10.3,35.7c0.6,9.8,3.5,21,9.8,28.7c6.3,7.7,15.7,11.7,25.4,12.7&#10;&#9;c0.5,0,3.3,0.3,4.2,0.3c2.4,0.2,4.8,0.2,7.2,0.2c3.2-0.1,6.5-0.4,9.7-0.9c1.2-0.2,2.4-0.4,3.6-0.7c1.1-0.3,2.2-0.6,3.3-1&#10;&#9;c0.4-0.1,2.6-1,3.1-1.3c2.8-1.3,5.5-3.2,7.3-5.6c0.5-0.6,0.9-1.3,1.2-2c0.7-1.5,1.2-3.2,1.2-5.1v-97.2H604.8z M578,363.5&#10;&#9;c-2.3-0.7-4.4-1.7-6.3-3c-1.8-1.2-3.4-2.7-4.7-4.4c-5.4-6.9-6.5-16.7-6-25.2c0.4-6.6,1.8-13.6,6-19c1.3-1.6,2.9-3.1,4.7-4.4&#10;&#9;c1.9-1.3,4.1-2.3,6.3-3c9.1-2.6,18,0,26.8,2.8c0,0,0.1,49.2,0.1,49.5c0,2.9-3.4,4.7-5.6,5.6c-3.1,1.4-9,1.8-9,1.8&#10;&#9;C586.1,364.9,582,364.6,578,363.5" class="st0"/>
<path d="M184.8,332.2c-5.1-4.2-11.6-6.9-17.4-9.3c-8-3.3-14.9-6.1-14.9-11.4c0-2.3,1.1-4.4,3-6c2.1-1.6,5-2.5,8.1-2.5&#10;&#9;c10,0,17.9,7.1,18,7.1l1.9,1.8l8.8-16.6l-1-1.1c-0.4-0.4-9.7-10-27.7-10c-8.6,0-16.6,2.8-22.3,7.8c-5.9,5.1-9.1,12.1-9.1,19.7&#10;&#9;c0,7.5,2.9,13.5,8.8,18.4c5,4.2,11.2,6.8,17.2,9.4c8.2,3.5,15.3,6.6,15.3,12c0,4.1-2.8,8.6-10.7,8.6c-11.3,0-20.3-8.6-20.4-8.7&#10;&#9;l-1.7-1.7l-11,15.2l1.1,1.2c0.1,0.1,3,3.3,8.3,6.4c4.9,2.9,12.9,6.3,23.5,6.3c9.2,0,17.1-2.8,22.7-8.2c5.3-5,8.2-12,8.2-19.6&#10;&#9;C193.7,343.5,190.8,337.2,184.8,332.2" class="st1"/>
<rect height="92" width="20.6" class="st1" y="285.6" x="277.7"/>
<path d="M264.8,336.3c-2-3.2-4.8-5.8-8.2-7.5c5.4-4.3,8.4-10.9,8.4-18.5c0-7.6-2.9-14-8.4-18.4&#10;&#9;c-5.2-4.2-12.4-6.4-20.8-6.4h-33.5v92h33.9c9,0,16.8-2.3,22.5-6.6c6.5-4.9,9.9-12.2,9.9-21C268.6,345,267.3,340.2,264.8,336.3&#10;&#9; M237.4,360.4h-15.7v-57.6h13.8c6.2,0,9.8,3.5,9.8,9.5c0,6.1-3.2,9.2-9.5,9.2h-4.8v16.9h6.4c3.5,0,6.4,1.1,8.4,3.2&#10;&#9;c2.1,2.2,3,4.3,3,7.4C248.8,356,244.4,360.4,237.4,360.4" class="st1"/>
<path d="M68.3,284c-26.3,0-47.6,21.3-47.6,47.7c0,24.7,18.7,45,42.7,47.4v-34.6c-5.2-2-8.8-7-8.8-12.8&#10;&#9;c0-7.6,6.1-13.7,13.7-13.7c7.5,0,13.7,6.1,13.7,13.7c0,5.8-3.7,10.8-8.8,12.8v34.6c24-2.4,42.7-22.7,42.7-47.4&#10;&#9;C115.8,305.3,94.5,284,68.3,284" class="st0"/>
</svg>